<?xml version="1.0" standalone="no"?>
<!DOCTYPE svg PUBLIC "-//W3C//DTD SVG 20010904//EN"
 "http://www.w3.org/TR/2001/REC-SVG-20010904/DTD/svg10.dtd">
<svg version="1.0" xmlns="http://www.w3.org/2000/svg"
 width="2000.000000pt" height="2000.000000pt" viewBox="0 0 2000.000000 2000.000000"
 preserveAspectRatio="xMidYMid meet">
<metadata>
Created by potrace 1.15, written by Peter Selinger 2001-2017
</metadata>
<g transform="translate(0.000000,2000.000000) scale(0.100000,-0.100000)"
fill="#000000" stroke="none">
<path d="M6612 19043 c-13 -27 -29 -74 -37 -106 -8 -31 -60 -169 -115 -306
-55 -137 -100 -256 -100 -265 0 -9 -13 -37 -29 -63 -16 -27 -36 -69 -46 -95
-10 -26 -23 -51 -29 -56 -20 -15 -230 -43 -306 -41 -41 1 -113 -5 -160 -14
-135 -25 -180 -29 -180 -18 0 16 90 209 122 262 35 57 35 72 1 98 -24 20 -27
20 -44 5 -18 -16 -60 -97 -142 -276 -42 -90 -47 -97 -79 -102 -18 -4 -170 -20
-338 -37 -316 -32 -398 -43 -413 -58 -13 -13 -13 -79 1 -93 17 -17 105 -26
252 -27 114 -1 230 -14 366 -42 l51 -10 -63 -187 c-80 -241 -81 -244 -44 -261
16 -7 34 -10 40 -6 5 3 26 59 46 123 37 118 102 292 110 292 14 0 88 -44 133
-80 29 -23 48 -33 43 -23 -11 20 -61 67 -106 101 -16 12 -24 22 -18 22 39 0
184 -150 198 -205 3 -13 12 -26 19 -29 15 -6 45 -90 44 -125 0 -18 -4 -12 -13
20 -11 42 -54 115 -62 106 -2 -2 7 -48 21 -101 26 -102 31 -207 16 -313 -4
-29 -4 -54 0 -55 9 -3 -33 -175 -52 -209 -6 -12 -26 -65 -44 -118 -18 -53 -60
-163 -94 -245 -51 -120 -62 -155 -56 -182 5 -29 10 -34 34 -34 31 0 55 22 66
60 4 14 15 36 25 50 53 75 138 292 159 401 11 61 55 167 47 114 -9 -55 69 123
254 580 101 247 183 459 183 472 0 13 4 23 8 23 5 0 16 15 25 33 l16 33 336
33 c186 18 374 39 420 47 127 22 299 34 485 34 154 0 169 -2 187 -20 11 -11
31 -20 44 -20 14 0 28 -5 32 -11 9 -16 24 9 24 42 0 26 -27 59 -47 59 -6 0
-16 6 -22 14 -7 8 -28 17 -49 21 -55 10 -371 6 -492 -6 -58 -7 -142 -13 -187
-14 -123 -4 -267 -14 -478 -36 -104 -10 -192 -19 -196 -19 -4 0 17 58 46 130
63 151 118 317 110 331 -13 20 78 269 98 269 4 0 3 -8 -2 -18 -12 -22 -31
-126 -21 -115 4 4 15 29 25 56 10 26 21 47 25 47 4 0 10 24 13 53 4 28 9 70
13 92 6 37 4 42 -20 53 -15 7 -28 12 -30 12 -1 0 -12 -21 -24 -47z m-402
-1007 c0 -2 -14 -36 -31 -76 -17 -40 -46 -118 -66 -174 -36 -105 -39 -112
-147 -361 -36 -82 -74 -188 -85 -235 -20 -83 -59 -200 -45 -135 3 17 8 98 11
181 7 230 -24 327 -149 465 -54 60 -88 87 -130 107 -32 15 -58 32 -58 38 0 6
10 35 21 63 15 35 28 52 43 55 81 14 280 39 376 47 63 5 131 13 150 18 36 9
110 14 110 7z"/>
<path d="M14150 18660 c-6 -10 -12 -52 -14 -92 -8 -154 -234 -723 -386 -974
-86 -141 -108 -204 -72 -204 11 0 38 39 79 113 48 85 62 104 59 80 -2 -18 -22
-64 -46 -103 -23 -40 -40 -74 -37 -76 10 -10 206 351 259 479 58 139 192 504
222 606 28 95 17 154 -34 181 -15 8 -21 6 -30 -10z"/>
<path d="M8209 18493 c-9 -10 -30 -46 -47 -81 -18 -35 -41 -73 -52 -84 -22
-24 -87 -146 -121 -228 -12 -30 -39 -78 -60 -106 -33 -45 -44 -52 -82 -58
-165 -25 -389 -227 -427 -386 -14 -58 -5 -82 40 -100 66 -27 155 27 307 188
l83 87 -25 -74 c-13 -40 -28 -95 -31 -122 -6 -48 -6 -49 27 -63 44 -19 62 -7
102 63 l30 53 -19 35 -18 35 28 82 c55 156 95 243 151 327 124 184 213 366
199 404 -5 13 -53 45 -67 45 -2 0 -10 -8 -18 -17z"/>
<path d="M9360 18495 c-7 -8 -25 -42 -41 -75 -15 -33 -42 -77 -58 -98 -17 -20
-58 -95 -92 -166 -33 -71 -75 -148 -91 -171 -26 -37 -36 -43 -76 -49 -86 -12
-189 -72 -283 -166 -103 -102 -152 -190 -147 -261 3 -42 5 -45 46 -59 42 -14
44 -14 100 15 37 19 96 68 170 141 61 62 112 111 112 110 0 -1 -11 -34 -24
-73 -23 -66 -31 -114 -27 -155 1 -11 13 -19 38 -24 34 -6 39 -4 65 27 16 19
34 51 40 71 10 33 9 41 -7 58 -21 24 -19 32 47 208 38 99 71 164 130 255 86
133 175 303 184 354 6 28 3 34 -27 52 -41 25 -43 25 -59 6z"/>
<path d="M10917 18038 c-145 -196 -435 -523 -414 -468 3 8 22 54 41 102 20 48
36 97 36 109 0 27 -46 89 -65 89 -8 0 -64 -43 -125 -96 -61 -53 -113 -94 -116
-91 -19 18 119 207 151 207 6 0 20 9 30 19 16 19 16 21 -10 45 -16 15 -35 26
-44 26 -33 0 -147 -133 -220 -257 -53 -90 -75 -164 -56 -190 12 -15 17 -16 34
-5 27 16 31 15 31 -3 0 -22 24 -29 52 -15 52 27 161 151 146 166 -2 2 -20 -9
-39 -25 -72 -59 -131 -101 -141 -101 -6 0 20 23 58 52 38 28 97 76 132 106 68
59 97 64 41 6 -24 -24 -30 -37 -22 -42 10 -6 8 -21 -8 -62 -35 -92 -8 -210 47
-210 37 0 87 37 185 138 142 146 428 502 429 535 0 4 -7 7 -16 7 -11 0 -14 6
-9 20 7 23 -10 50 -31 50 -7 0 -51 -51 -97 -112z"/>
<path d="M12016 17988 c-7 -18 -21 -64 -30 -102 -23 -98 -94 -261 -156 -357
-106 -165 -232 -464 -246 -583 -7 -58 4 -76 52 -79 25 -2 32 5 61 58 17 33 76
169 129 302 95 236 98 241 121 232 14 -5 39 -9 57 -9 44 0 180 69 239 120 54
48 100 134 100 190 0 39 -25 90 -43 90 -6 0 -19 9 -30 20 -11 11 -32 20 -47
20 -28 0 -109 -36 -150 -65 l-21 -16 20 68 c25 82 17 136 -19 141 -18 3 -26
-4 -37 -30z m240 -213 c10 -24 -42 -101 -94 -139 -83 -60 -192 -104 -192 -77
0 18 110 139 158 175 74 54 118 68 128 41z"/>
<path d="M13401 17997 c-7 -13 -14 -34 -15 -48 -10 -91 -94 -293 -172 -416
-76 -120 -155 -285 -202 -423 -63 -185 -63 -230 0 -245 23 -6 30 -2 54 37 26
40 145 319 209 491 23 61 33 76 45 70 38 -19 115 -8 184 27 124 62 206 157
221 255 7 51 -8 79 -63 118 -41 30 -44 31 -90 19 -26 -7 -66 -26 -89 -42 -49
-33 -48 -34 -28 40 18 67 19 112 3 128 -19 19 -44 14 -57 -11z m236 -223 c9
-24 -25 -80 -70 -119 -73 -63 -217 -127 -217 -97 0 12 89 113 132 151 40 35
117 81 136 81 7 0 15 -7 19 -16z"/>
<path d="M12715 17937 c-33 -18 -80 -52 -105 -75 -83 -80 -182 -152 -210 -152
-30 0 -50 -16 -50 -41 0 -18 23 -31 43 -24 7 3 20 -12 30 -33 9 -20 42 -58 73
-84 55 -48 56 -48 127 -47 87 0 161 25 165 55 2 11 -8 30 -21 42 -22 20 -26
21 -63 8 -116 -40 -140 -41 -181 -3 -43 38 -31 59 51 91 141 53 286 165 286
220 0 26 -23 50 -61 64 -21 8 -36 4 -84 -21z"/>
<path d="M14365 17937 c-33 -18 -87 -57 -120 -87 -101 -94 -166 -140 -194
-140 -31 0 -51 -16 -51 -41 0 -19 23 -31 44 -23 9 3 17 -5 24 -24 5 -16 34
-53 63 -83 l54 -54 90 0 c140 0 199 39 142 93 -22 20 -26 21 -63 8 -82 -29
-110 -35 -136 -29 -35 7 -68 39 -68 66 0 19 13 27 74 51 141 53 286 165 286
220 0 26 -23 50 -61 64 -21 8 -36 4 -84 -21z"/>
<path d="M13109 17949 c-14 -5 -32 -20 -39 -33 -7 -13 -24 -30 -38 -37 -37
-20 -121 -125 -149 -186 -14 -29 -27 -77 -30 -107 -5 -52 -4 -57 26 -87 30
-29 35 -31 79 -25 26 4 71 11 99 15 64 9 111 49 150 129 25 51 25 57 19 170
-7 114 -8 118 -38 145 -33 29 -39 30 -79 16z m52 -193 c0 -43 3 -55 9 -41 7
17 9 16 9 -9 1 -21 -14 -45 -55 -93 -65 -73 -76 -81 -135 -87 -24 -3 -36 -3
-26 0 22 7 12 24 -14 24 -57 0 19 152 120 238 77 65 91 60 92 -32z"/>
<path d="M6835 17931 c-22 -11 -62 -29 -89 -40 -94 -41 -253 -192 -321 -306
-27 -45 -40 -113 -27 -134 5 -7 30 -15 55 -18 40 -5 56 0 122 35 83 46 171
109 168 122 -2 5 11 18 27 30 17 12 30 19 30 15 0 -3 -13 -31 -29 -63 -31 -62
-50 -142 -33 -142 6 0 17 -3 25 -6 10 -3 18 3 23 18 7 22 7 22 14 3 6 -16 23
11 79 124 39 79 71 155 71 170 0 32 -17 52 -37 44 -8 -3 -20 2 -27 12 -11 16
-25 8 -157 -92 -167 -127 -199 -149 -199 -135 0 5 18 32 40 60 55 69 303 238
312 212 2 -5 19 -11 38 -12 31 -3 35 0 38 24 2 20 -4 31 -23 44 -14 9 -23 19
-20 22 7 7 -15 32 -29 32 -6 0 -29 -9 -51 -19z"/>
<path d="M9975 17931 c-22 -11 -66 -31 -98 -46 -98 -45 -306 -261 -331 -341
-4 -12 -8 -36 -11 -53 -8 -67 79 -82 173 -30 79 44 183 119 178 128 -3 4 8 18
24 30 17 12 30 19 30 16 0 -3 -13 -31 -29 -63 -15 -31 -31 -74 -35 -95 -6 -33
-4 -38 16 -46 17 -7 26 -5 34 5 10 12 13 12 16 2 3 -7 37 51 76 129 81 161 92
213 46 213 -15 0 -32 7 -38 15 -10 14 -34 -1 -166 -100 -163 -123 -190 -141
-190 -128 0 16 81 106 127 141 25 19 84 59 130 88 82 51 84 52 114 37 16 -8
36 -12 44 -9 32 12 7 86 -28 86 -8 0 -7 3 2 9 11 7 10 11 -7 20 -27 14 -30 14
-77 -8z"/>
<path d="M7130 17873 c-17 -26 -30 -53 -30 -60 0 -8 -14 -42 -31 -76 -31 -61
-59 -145 -59 -179 0 -30 33 -20 64 18 50 63 217 174 262 174 14 0 15 -7 10
-41 -4 -22 -13 -50 -20 -62 -7 -12 -28 -80 -45 -152 l-32 -130 28 -22 c15 -13
33 -23 39 -23 21 0 42 35 42 71 0 19 16 96 36 171 20 75 36 150 36 167 0 39
-24 87 -49 101 -40 21 -111 5 -111 -24 0 -17 -27 -29 -32 -14 -3 8 -11 7 -27
-1 -31 -17 -35 -9 -11 22 11 14 20 38 20 54 l-1 28 -23 -28 -23 -29 -6 24 c-4
15 -1 27 8 34 14 11 10 24 -7 24 -5 0 -22 -21 -38 -47z"/>
<path d="M9351 17878 c-7 -23 -40 -103 -74 -177 -66 -148 -76 -202 -42 -227
10 -8 22 -14 26 -14 5 0 25 28 45 63 20 34 54 81 76 105 23 25 36 48 32 55 -4
6 -4 9 1 5 4 -4 23 6 42 22 67 59 144 85 171 58 9 -9 16 -7 32 7 30 27 25 56
-16 88 -34 28 -37 28 -85 17 -27 -7 -64 -22 -82 -34 -61 -42 -61 -41 -53 -12
5 21 0 32 -24 56 -17 17 -32 30 -34 30 -1 0 -8 -19 -15 -42z"/>
<path d="M11050 17873 c-16 -27 -30 -54 -30 -61 0 -7 -14 -39 -30 -72 -28 -55
-60 -156 -60 -187 0 -25 38 -13 63 21 47 61 217 176 262 176 21 0 19 -42 -4
-93 -10 -23 -31 -91 -45 -152 -15 -60 -29 -116 -31 -123 -5 -15 41 -62 61 -62
24 0 44 31 44 68 0 20 18 106 39 189 44 169 43 204 -6 243 -40 31 -123 22
-123 -14 0 -17 -27 -29 -32 -14 -3 8 -10 7 -26 -1 -25 -14 -28 -3 -7 25 8 10
14 33 15 49 l0 30 -25 -30 -24 -30 -1 27 c0 15 5 30 10 33 15 9 12 25 -5 25
-8 0 -28 -21 -45 -47z"/>
<path d="M8560 16720 l0 -220 25 0 25 0 0 220 0 220 -25 0 -25 0 0 -220z"/>
<path d="M8840 16720 l0 -220 25 0 25 0 0 220 0 220 -25 0 -25 0 0 -220z"/>
<path d="M7656 16905 c-51 -18 -85 -44 -113 -84 -45 -67 -40 -179 12 -247 56
-73 186 -99 273 -55 49 25 56 35 37 51 -11 9 -20 7 -42 -8 -92 -65 -233 -13
-263 96 -22 83 13 161 90 200 57 29 106 28 163 -2 36 -20 48 -22 56 -12 15 17
-12 41 -68 61 -53 18 -94 19 -145 0z"/>
<path d="M10067 16873 c-4 -3 -7 -19 -7 -35 0 -23 -4 -28 -25 -28 -18 0 -25
-5 -25 -20 0 -15 7 -20 25 -20 24 0 25 -2 26 -67 1 -152 9 -180 56 -199 27
-12 42 -13 69 -4 35 12 39 17 26 37 -5 8 -13 9 -22 3 -22 -14 -47 -12 -64 6
-13 12 -16 38 -16 120 l0 104 45 0 c38 0 45 3 45 20 0 17 -7 20 -45 20 -45 0
-45 0 -45 35 0 27 -4 35 -18 35 -10 0 -22 -3 -25 -7z"/>
<path d="M8121 16792 c-48 -24 -73 -62 -79 -121 -8 -86 35 -149 116 -171 78
-20 174 35 189 109 10 50 10 52 0 91 -24 93 -136 138 -226 92z m145 -40 c68
-55 55 -176 -22 -208 -67 -28 -144 10 -159 78 -19 83 31 148 113 148 29 0 55
-7 68 -18z"/>
<path d="M9160 16788 c-88 -60 -93 -199 -9 -260 57 -43 165 -41 205 3 28 31 4
42 -41 19 -47 -24 -64 -25 -110 -6 -30 13 -75 66 -75 89 0 4 61 7 136 7 l136
0 -7 33 c-11 55 -40 99 -75 119 -49 25 -119 24 -160 -4z m170 -55 c11 -14 20
-34 20 -44 0 -17 -9 -19 -111 -19 -110 0 -110 0 -104 23 26 84 141 108 195 40z"/>
<path d="M9652 16794 c-54 -28 -77 -69 -77 -141 0 -69 19 -104 74 -137 36 -21
116 -25 149 -7 38 20 54 42 41 57 -9 11 -16 9 -40 -9 -117 -86 -252 82 -149
185 24 23 37 28 78 28 34 0 57 -6 74 -19 16 -13 29 -17 39 -11 11 8 9 14 -13
37 -35 34 -124 43 -176 17z"/>
<path d="M10420 16655 l0 -155 25 0 25 0 0 155 0 155 -25 0 -25 0 0 -155z"/>
<path d="M10752 16794 c-54 -28 -77 -69 -77 -141 0 -47 5 -68 21 -90 72 -97
227 -85 275 21 10 23 19 54 19 70 0 40 -34 107 -67 131 -37 26 -127 31 -171 9z
m159 -53 c25 -26 29 -37 29 -86 0 -49 -4 -60 -28 -85 -60 -60 -147 -44 -186
33 -23 49 -15 100 24 139 24 23 37 28 80 28 44 0 56 -4 81 -29z"/>
<path d="M11190 16655 l0 -155 25 0 25 0 0 106 c0 103 1 106 29 135 25 24 38
29 79 29 76 0 86 -17 90 -156 3 -106 5 -114 24 -114 19 0 19 6 16 125 -3 120
-4 126 -30 151 -38 38 -122 45 -173 16 -34 -21 -35 -21 -35 -2 0 15 -7 20 -25
20 l-25 0 0 -155z"/>
<path d="M4515 15135 c-228 -43 -475 -125 -661 -218 -216 -109 -408 -267 -467
-386 l-32 -66 1 -170 1 -170 60 -250 c33 -137 59 -251 58 -253 -2 -2 -18 6
-36 17 -69 42 -170 17 -226 -56 -25 -32 -28 -46 -31 -125 -3 -69 1 -103 18
-160 48 -159 140 -303 235 -366 43 -29 56 -33 102 -30 l52 3 16 -95 c29 -159
87 -298 176 -417 l39 -52 0 -346 0 -346 -65 -94 c-93 -133 -154 -168 -445
-256 -436 -131 -773 -384 -1027 -771 -115 -174 -216 -402 -265 -593 -16 -65
-19 -88 -10 -97 19 -19 29 -1 66 127 117 406 364 769 691 1015 177 133 341
214 562 277 70 20 163 51 206 68 42 18 77 31 77 29 0 -3 -107 -156 -238 -342
-132 -185 -246 -349 -255 -363 -18 -28 -37 30 222 -684 30 -85 52 -130 61
-130 8 0 16 8 18 17 2 10 -58 186 -133 393 l-136 374 333 471 333 471 5 -863
c4 -758 7 -863 20 -863 12 0 16 19 20 90 l5 90 565 0 565 0 5 -90 c4 -71 8
-90 20 -90 13 0 16 105 20 863 l5 863 101 -143 c56 -79 205 -290 333 -470
l231 -327 -136 -375 c-74 -207 -134 -384 -132 -393 11 -58 38 0 175 376 139
386 142 396 126 420 -9 15 -124 178 -255 363 -131 185 -238 339 -238 341 0 2
37 -11 83 -29 45 -18 138 -49 207 -69 318 -92 568 -241 805 -480 235 -237 395
-508 490 -835 21 -72 35 -105 45 -105 25 0 15 74 -29 204 -205 614 -700 1094
-1302 1261 -140 39 -245 80 -321 126 -46 28 -72 55 -123 127 l-65 92 0 352 0
352 63 93 c78 115 123 220 151 358 l23 105 55 -3 c38 -3 66 2 88 13 105 54
222 229 265 395 17 67 20 196 4 237 -14 38 -46 71 -93 95 -31 16 -52 19 -97
15 l-57 -5 19 62 c65 212 96 500 70 638 -27 135 -79 211 -179 260 -62 31 -73
33 -172 33 l-105 0 -1 90 c-2 199 -79 331 -223 386 -74 28 -227 34 -336 14z
m440 -876 c64 -24 126 -86 160 -161 15 -32 35 -109 46 -170 29 -166 64 -295
115 -431 l26 -67 -17 -152 c-34 -317 -84 -555 -145 -685 -108 -233 -352 -438
-588 -494 -71 -17 -217 -14 -292 5 -237 63 -462 275 -560 528 -45 117 -84 344
-114 662 l-15 158 34 123 c38 140 71 327 80 463 l7 92 29 -40 c92 -127 232
-152 389 -72 41 21 136 71 211 110 276 145 481 187 634 131z m-1538 -659 c41
-24 90 -92 102 -139 5 -20 12 -70 16 -111 l7 -75 -32 43 c-34 48 -77 77 -132
92 -41 11 -92 4 -82 -12 4 -5 15 -7 25 -5 26 7 89 -11 112 -31 17 -15 16 -17
-7 -41 -50 -54 -60 -110 -29 -162 30 -50 45 -35 18 17 -8 16 -15 38 -15 49 0
24 30 71 57 90 19 13 23 11 55 -39 32 -48 37 -67 52 -182 15 -121 15 -130 -1
-141 -61 -46 -183 56 -267 223 -99 197 -100 361 -2 419 50 30 81 31 123 5z
m2168 -5 c61 -35 79 -79 72 -174 -12 -165 -125 -382 -236 -453 -49 -30 -78
-35 -104 -15 -16 11 -16 20 0 141 15 119 19 134 52 182 40 59 56 59 91 1 24
-38 25 -76 5 -103 -16 -21 -20 -44 -7 -44 15 0 42 58 42 90 0 37 -13 65 -47
102 l-26 27 34 20 c34 21 55 26 96 22 31 -2 37 16 8 23 -58 15 -147 -29 -196
-96 l-31 -43 6 60 c14 129 19 148 51 193 37 55 87 92 123 92 14 0 44 -11 67
-25z m-1597 -1524 c99 -140 254 -268 378 -313 74 -26 207 -35 283 -18 147 33
289 150 336 278 12 32 14 -9 14 -345 l1 -381 -64 -36 c-87 -49 -197 -92 -303
-118 -126 -32 -313 -31 -438 1 -90 23 -249 91 -305 131 l-30 21 0 492 0 492
40 -69 c23 -38 62 -99 88 -135z m1012 -1026 l0 -195 -570 0 -570 0 0 191 c0
105 3 189 8 187 236 -120 319 -146 493 -155 196 -10 374 29 549 121 47 24 86
45 88 45 1 1 2 -87 2 -194z m-2 -612 l-3 -128 -565 0 -565 0 -3 128 -3 127
571 0 571 0 -3 -127z"/>
<path d="M3966 13839 c-21 -5 -64 -23 -95 -39 -58 -31 -150 -104 -141 -113 7
-6 341 66 457 99 51 15 90 30 88 34 -16 26 -225 39 -309 19z"/>
<path d="M4583 13837 c-23 -7 -44 -15 -47 -18 -4 -3 40 -18 96 -34 124 -33
451 -106 455 -101 2 2 -19 24 -47 49 -56 50 -132 90 -201 106 -58 14 -203 12
-256 -2z"/>
<path d="M3964 13626 c-36 -16 -44 -32 -44 -86 0 -47 35 -80 85 -80 18 0 44 9
59 21 21 16 26 29 26 63 0 70 -62 110 -126 82z"/>
<path d="M4789 13625 c-79 -44 -47 -165 43 -165 110 0 121 156 13 175 -17 3
-41 -1 -56 -10z"/>
<path d="M4330 13266 c0 -198 1 -206 23 -231 14 -17 36 -28 62 -32 49 -6 155
22 155 42 0 23 -14 25 -71 10 -68 -18 -80 -18 -105 -1 -17 13 -19 31 -24 213
-5 178 -7 198 -22 201 -17 3 -18 -12 -18 -202z"/>
<path d="M4026 12882 c-28 -28 56 -74 179 -97 89 -17 310 -20 403 -5 88 15
222 59 228 75 12 31 -8 34 -70 10 -197 -74 -519 -74 -683 0 -28 13 -54 21 -57
17z"/>
<path d="M15615 15093 c-79 -17 -181 -60 -385 -162 -206 -103 -358 -168 -523
-226 -203 -71 -353 -308 -373 -589 -4 -59 1 -133 20 -272 14 -105 26 -195 26
-199 0 -4 -9 0 -19 9 -67 61 -200 24 -252 -68 -28 -50 -30 -159 -5 -256 36
-140 142 -310 234 -375 37 -25 53 -30 102 -30 l58 0 12 -75 c25 -158 87 -310
174 -428 l46 -62 0 -343 c0 -218 -4 -356 -11 -382 -8 -27 -32 -60 -78 -106
-76 -76 -195 -139 -346 -184 -258 -77 -365 -121 -515 -214 -308 -192 -551
-465 -716 -806 -60 -124 -134 -328 -149 -407 -6 -33 -5 -38 11 -38 1331 -1
4878 1 4881 3 8 9 -61 225 -106 332 -148 351 -412 666 -736 877 -123 81 -285
159 -407 198 -57 18 -146 46 -198 62 -190 60 -339 158 -389 256 -20 40 -21 55
-21 406 l0 366 40 52 c44 58 112 182 136 250 9 24 26 90 38 148 18 79 27 104
37 100 8 -3 37 -5 64 -5 65 0 128 43 192 129 127 170 189 416 133 526 -37 72
-123 116 -196 100 -20 -5 -41 -13 -47 -19 -6 -6 -15 -11 -20 -11 -11 0 -1 222
20 405 42 384 -43 662 -271 885 -89 88 -129 113 -215 140 -60 19 -190 26 -246
13z m401 -915 c2 -195 53 -411 150 -632 l43 -99 -10 -101 c-15 -151 -57 -417
-85 -535 -43 -184 -128 -335 -260 -462 -169 -161 -341 -239 -529 -239 -103 0
-181 17 -274 61 -198 92 -375 292 -452 509 -43 122 -107 548 -111 740 -2 65 3
90 40 191 65 180 95 335 96 507 1 90 5 141 11 138 6 -2 48 -13 95 -24 399 -99
827 -87 1175 31 55 19 102 35 105 36 3 0 6 -54 6 -121z m-1685 -561 c54 -36
95 -106 103 -174 4 -32 9 -78 13 -103 l5 -45 -31 42 c-45 61 -100 95 -158 97
-26 0 -48 -3 -48 -9 0 -5 8 -9 19 -7 25 3 87 -15 110 -33 18 -14 17 -16 -18
-55 -29 -32 -36 -48 -36 -81 0 -42 23 -99 40 -99 14 0 12 22 -5 44 -25 33 -19
81 16 121 17 19 34 35 38 35 3 0 22 -24 41 -52 32 -48 37 -65 52 -183 15 -121
15 -131 0 -143 -59 -46 -194 70 -273 235 -92 193 -92 349 0 410 43 29 89 29
132 0z m2177 -6 c68 -48 78 -162 28 -308 -51 -148 -150 -289 -230 -327 -41
-19 -57 -20 -80 -3 -17 13 -17 19 -2 141 15 115 20 134 51 182 31 49 37 53 56
44 25 -14 59 -68 59 -95 0 -11 -9 -34 -20 -52 -11 -18 -15 -35 -10 -38 14 -9
50 55 50 88 0 33 -20 75 -49 101 -12 11 -21 23 -21 28 0 17 91 50 122 44 21
-4 28 -2 26 7 -7 19 -57 20 -104 2 -27 -10 -61 -36 -90 -68 l-46 -52 7 80 c9
102 36 164 92 216 41 38 49 41 88 37 24 -3 57 -15 73 -27z m-1569 -1573 c144
-180 336 -288 512 -288 179 0 358 110 429 262 l29 63 1 -225 0 -225 30 -51
c58 -101 204 -199 396 -263 l89 -30 -135 -65 c-564 -271 -1164 -310 -1695
-111 -164 62 -364 169 -334 179 8 3 50 17 94 32 202 68 354 177 400 288 12 29
15 96 15 363 l0 327 52 -87 c29 -48 81 -124 117 -169z"/>
<path d="M14848 13831 c-66 -21 -140 -66 -183 -111 -23 -24 -25 -30 -11 -30
46 0 450 96 516 123 24 9 22 10 -25 23 -73 20 -227 17 -297 -5z"/>
<path d="M15480 13835 c-43 -12 -44 -13 -20 -22 65 -27 470 -123 516 -123 14
0 12 6 -11 30 -44 46 -118 90 -186 111 -71 22 -227 25 -299 4z"/>
<path d="M14870 13607 c-55 -28 -62 -108 -13 -147 59 -46 143 -7 143 67 -1 74
-65 113 -130 80z"/>
<path d="M15679 13591 c-20 -20 -29 -39 -29 -61 0 -45 47 -90 93 -90 80 0 115
93 58 151 -20 20 -39 29 -61 29 -22 0 -41 -9 -61 -29z"/>
<path d="M15240 13248 c0 -223 3 -234 60 -258 54 -22 203 20 174 50 -8 8 -29
7 -77 -6 -62 -15 -69 -15 -92 0 l-25 16 -2 197 c-3 179 -5 198 -20 201 -17 3
-18 -12 -18 -200z"/>
<path d="M15060 12834 c0 -33 147 -74 272 -74 117 0 278 44 278 76 0 18 -5 18
-110 -12 -94 -27 -273 -24 -354 5 -70 25 -86 26 -86 5z"/>
<path d="M10310 15043 c-177 -28 -419 -100 -618 -184 -64 -27 -117 -49 -118
-49 -1 0 -4 18 -8 41 -6 37 -20 71 -44 107 -11 16 -92 -11 -193 -64 -164 -86
-252 -217 -263 -387 -4 -65 -7 -71 -49 -116 -80 -85 -127 -207 -127 -326 0
-34 13 -146 30 -250 16 -104 27 -191 26 -193 -2 -2 -19 6 -37 17 -69 42 -170
17 -226 -56 -24 -31 -28 -47 -32 -117 -2 -44 2 -104 9 -133 37 -165 162 -363
263 -414 28 -15 54 -20 88 -17 l48 3 16 -95 c29 -159 87 -298 176 -417 l39
-52 0 -358 0 -358 -30 -53 c-63 -109 -207 -191 -475 -272 -338 -102 -576 -246
-811 -493 -214 -224 -375 -504 -470 -815 -36 -120 -40 -157 -14 -157 15 0 21
16 55 138 l16 57 2359 0 2359 0 16 -57 c34 -122 40 -138 55 -138 25 0 15 70
-29 202 -170 509 -536 928 -1006 1152 -95 46 -179 76 -380 136 -193 58 -346
155 -397 254 l-28 53 0 359 0 360 55 79 c89 126 139 251 172 430 l9 45 56 -3
c38 -3 66 2 88 13 106 55 218 223 266 400 16 60 18 192 3 232 -23 62 -99 113
-169 113 -48 0 -73 -11 -117 -53 -18 -17 -33 -29 -33 -26 0 6 58 304 75 384
19 90 19 176 0 247 l-14 57 34 57 c65 107 79 157 79 279 1 105 -1 114 -31 175
-59 119 -193 225 -323 254 -64 15 -280 20 -350 9z m-789 -873 c147 -49 346
-101 484 -126 139 -25 441 -25 539 -1 38 10 70 16 71 15 1 -2 7 -46 13 -98 14
-119 63 -316 109 -438 l35 -93 -12 -112 c-23 -225 -74 -519 -107 -615 -67
-199 -198 -369 -371 -485 -139 -93 -253 -130 -397 -130 -196 0 -361 78 -523
247 -129 134 -202 278 -240 471 -22 106 -55 360 -72 537 l-9 106 34 99 c77
222 115 427 115 624 l0 127 103 -43 c57 -23 159 -61 228 -85z m-630 -573 c19
-12 48 -43 65 -69 31 -45 36 -66 50 -193 l6 -60 -31 43 c-35 48 -78 77 -133
92 -41 11 -92 4 -82 -12 4 -5 15 -7 25 -5 26 7 89 -11 112 -31 17 -15 16 -17
-7 -41 -50 -54 -60 -110 -29 -162 30 -50 45 -35 18 17 -8 16 -15 38 -15 49 0
24 30 71 56 90 18 12 23 9 55 -39 33 -48 37 -63 52 -181 18 -141 15 -155 -33
-155 -65 0 -177 112 -235 237 -99 209 -98 369 2 422 50 26 83 26 124 -2z
m2163 0 c61 -35 78 -76 73 -172 -13 -227 -200 -504 -323 -480 -35 6 -36 7 -31
43 3 20 11 82 18 136 10 87 16 106 48 152 40 59 56 59 91 1 24 -38 25 -62 5
-101 -17 -33 -19 -46 -5 -46 15 0 40 56 40 90 0 37 -13 65 -47 102 l-26 27 34
20 c35 22 54 26 102 22 34 -3 36 15 2 23 -58 15 -147 -29 -196 -96 l-31 -43 6
60 c14 127 19 148 50 193 36 54 88 92 125 92 14 0 44 -10 65 -23z m-1596
-1526 c100 -141 253 -268 378 -313 74 -26 207 -35 283 -18 147 33 289 150 336
278 12 33 14 15 14 -186 1 -205 3 -226 22 -263 30 -60 92 -123 167 -170 79
-50 79 -49 -74 -109 -211 -82 -437 -121 -709 -122 -311 0 -594 54 -784 152
l-43 21 63 37 c85 51 165 126 195 183 l24 48 0 333 0 333 40 -69 c23 -38 62
-99 88 -135z m1396 -766 c39 -14 78 -28 86 -31 29 -11 -206 -116 -399 -178
-246 -80 -427 -109 -681 -109 -325 0 -594 61 -875 198 -164 80 -161 76 -69
107 l77 27 66 -34 c216 -108 477 -159 816 -159 326 0 606 55 815 162 41 22 79
40 84 40 5 1 41 -9 80 -23z m-2017 -92 c278 -177 718 -286 1098 -270 337 14
633 90 963 247 l130 62 69 -22 c179 -59 374 -164 528 -285 97 -76 215 -183
215 -196 0 -5 -775 -9 -1930 -9 -1158 0 -1930 4 -1930 9 0 30 275 256 405 333
119 71 335 166 382 168 7 0 38 -17 70 -37z m3109 -582 c31 -38 79 -102 106
-142 l49 -74 -2177 -3 c-1198 -1 -2179 0 -2182 3 -7 7 55 105 126 200 l64 85
1979 0 1979 0 56 -69z m217 -328 c35 -67 78 -167 91 -210 l7 -23 -2340 0
c-1481 0 -2341 4 -2341 10 0 14 90 221 112 258 l20 32 2208 0 2208 0 35 -67z"/>
<path d="M9405 13917 c-22 -8 -60 -24 -85 -37 -46 -23 -134 -89 -127 -96 8 -9
487 79 537 98 25 10 25 10 -15 25 -55 21 -257 27 -310 10z"/>
<path d="M10070 13915 c-30 -9 -58 -19 -63 -24 -4 -4 38 -18 95 -30 87 -18
164 -32 436 -75 44 -7 -36 62 -118 102 -70 34 -82 36 -185 39 -77 2 -127 -2
-165 -12z"/>
<path d="M9439 13629 c-85 -32 -59 -169 31 -169 57 0 90 31 90 84 0 67 -59
108 -121 85z"/>
<path d="M10259 13625 c-79 -44 -47 -165 43 -165 110 0 121 156 13 175 -17 3
-41 -1 -56 -10z"/>
<path d="M9800 13265 l0 -207 31 -30 c28 -29 34 -30 82 -25 75 9 127 26 127
42 0 23 -14 25 -71 10 -68 -18 -80 -18 -105 -1 -17 13 -19 31 -24 213 -5 178
-7 198 -22 201 -17 3 -18 -12 -18 -203z"/>
<path d="M9456 12883 c-26 -26 14 -51 139 -85 101 -28 386 -36 510 -14 120 21
236 56 242 73 11 29 -13 31 -82 8 -226 -74 -545 -74 -741 0 -34 13 -65 21 -68
18z"/>
<path d="M9757 8535 c-261 -49 -502 -191 -642 -379 -68 -92 -80 -116 -160
-336 -137 -376 -199 -474 -395 -630 -110 -87 -169 -171 -206 -295 -23 -77 -26
-309 -5 -405 9 -39 47 -128 96 -226 143 -283 140 -332 -32 -629 -149 -258
-204 -392 -223 -540 -25 -194 54 -385 210 -512 l49 -40 -122 -81 c-163 -107
-262 -188 -383 -314 -199 -207 -346 -456 -415 -703 -24 -86 -24 -105 -1 -105
13 0 26 27 55 123 166 526 587 936 1252 1217 55 23 135 60 177 83 l77 40 41
-41 c283 -282 941 -322 1425 -86 50 24 115 62 145 85 l55 42 57 -32 c31 -17
113 -56 182 -86 377 -164 618 -319 837 -535 218 -216 367 -464 440 -730 18
-63 26 -80 41 -80 24 0 23 20 -7 123 -108 372 -370 712 -752 974 l-102 70 55
38 c72 50 155 141 198 218 94 169 85 373 -29 623 -18 40 -72 141 -120 224
-122 214 -138 250 -143 341 -6 97 8 139 103 325 82 159 105 240 105 362 0 113
-16 186 -62 281 -46 96 -141 200 -269 294 -113 83 -164 155 -218 310 -17 49
-40 124 -51 168 l-21 80 32 37 c17 19 44 63 60 96 24 51 29 74 29 138 0 95
-20 153 -84 242 -59 83 -122 138 -207 180 -97 49 -162 60 -294 51 -162 -10
-165 -10 -230 9 -83 26 -434 32 -548 11z m-362 -885 c315 -213 703 -266 1095
-150 55 17 103 30 108 30 4 0 18 -46 31 -102 28 -125 89 -319 143 -451 l40
-98 -12 -107 c-23 -223 -71 -486 -110 -597 -59 -170 -195 -318 -412 -447 -104
-61 -196 -89 -318 -95 -175 -9 -318 37 -477 156 -167 124 -269 270 -313 446
-25 103 -66 390 -81 576 l-12 145 31 115 c54 198 102 481 102 603 0 30 3 67 6
85 l6 31 52 -47 c28 -25 83 -67 121 -93z m-418 -772 c46 -45 70 -101 78 -183
l7 -70 -44 42 c-49 48 -83 63 -139 63 -28 0 -39 -4 -39 -15 0 -11 7 -13 29 -9
18 4 46 -2 76 -15 l48 -21 -25 -28 c-34 -36 -48 -65 -48 -97 0 -30 26 -85 40
-85 14 0 12 12 -5 48 -9 18 -13 41 -9 56 7 27 47 76 63 76 6 0 21 -19 35 -42
32 -56 67 -295 45 -309 -76 -48 -231 117 -297 316 -40 122 -37 229 7 269 60
55 124 56 178 4z m2080 22 c42 -25 62 -57 69 -112 14 -103 -65 -314 -157 -421
-41 -48 -103 -87 -136 -87 -43 1 -45 9 -28 146 14 104 22 137 43 171 15 24 31
43 35 43 15 0 56 -49 63 -75 4 -17 1 -40 -10 -62 -19 -40 -14 -55 11 -31 9 9
18 39 21 66 4 46 2 52 -32 90 l-36 40 45 22 c31 15 56 20 76 16 22 -4 29 -2
29 9 0 11 -11 15 -39 15 -55 0 -84 -13 -136 -61 l-46 -42 7 69 c8 83 35 144
86 190 45 40 86 44 135 14z m-1507 -1310 c66 -98 173 -199 260 -244 94 -49
192 -60 286 -30 111 35 228 127 277 219 15 28 16 19 17 -178 0 -239 3 -249 80
-331 27 -29 50 -56 50 -60 0 -12 -219 -113 -303 -140 -138 -45 -238 -59 -382
-53 -91 3 -153 12 -205 27 -91 26 -219 86 -278 129 l-44 32 56 59 c87 91 86
85 86 432 l0 303 28 -50 c15 -27 47 -79 72 -115z m-225 -696 c100 -71 234
-128 370 -155 97 -19 295 -14 408 11 130 28 189 49 338 121 l126 61 72 -53 73
-53 -24 -18 c-190 -150 -602 -263 -893 -244 -263 18 -487 96 -616 215 l-53 48
61 41 c34 23 65 46 68 52 9 15 16 13 70 -26z"/>
<path d="M9456 7319 c-57 -9 -183 -68 -210 -98 -19 -20 -18 -20 50 -15 187 15
464 45 484 52 20 8 16 11 -36 30 -107 39 -190 48 -288 31z"/>
<path d="M10203 7320 c-75 -14 -169 -51 -152 -60 19 -10 153 -27 324 -40 77
-6 159 -12 183 -14 23 -2 42 -1 42 3 0 13 -98 72 -150 90 -67 24 -177 33 -247
21z"/>
<path d="M9464 7002 c-51 -41 -54 -105 -7 -142 58 -46 143 -8 143 64 0 48 -8
65 -41 81 -37 20 -69 19 -95 -3z"/>
<path d="M10283 6996 c-22 -19 -28 -32 -28 -66 0 -53 38 -90 91 -90 79 0 115
102 53 154 -38 33 -79 33 -116 2z"/>
<path d="M9840 6627 c0 -96 2 -106 24 -130 31 -34 68 -43 116 -28 46 14 68 37
52 53 -9 9 -21 8 -47 -5 -43 -21 -56 -21 -81 -3 -16 12 -20 30 -24 113 -4 83
-8 98 -22 101 -16 3 -18 -7 -18 -101z"/>
<path d="M9622 6318 c2 -18 20 -30 88 -57 149 -60 337 -55 483 11 62 29 81 48
58 62 -5 3 -33 -5 -62 -19 -163 -74 -354 -73 -500 1 -60 30 -71 30 -67 2z"/>
<path d="M15260 8294 c-14 -2 -52 -9 -85 -15 -234 -40 -474 -180 -617 -359
-107 -133 -165 -262 -213 -470 -52 -226 -193 -557 -284 -665 -120 -142 -143
-174 -177 -244 -44 -90 -78 -223 -93 -359 -12 -110 -15 -533 -5 -619 l7 -53
526 -2 526 -3 0 -170 c0 -201 1 -198 -112 -305 -124 -119 -272 -209 -508 -310
-431 -184 -763 -430 -993 -735 -127 -168 -259 -450 -279 -594 -5 -37 -4 -43
11 -40 13 3 30 41 61 137 171 519 571 909 1228 1196 177 77 290 138 391 211
l78 55 -30 -52 c-17 -29 -118 -208 -226 -397 -108 -190 -196 -352 -196 -361 0
-9 42 -158 94 -331 52 -173 104 -347 115 -386 15 -48 27 -73 37 -73 8 0 17 6
20 13 2 7 -47 184 -109 395 l-114 382 261 460 c144 253 264 460 268 460 4 0 7
-383 7 -852 1 -468 3 -854 6 -856 2 -2 11 -2 20 1 13 6 15 70 15 556 l0 550
83 -39 c241 -112 514 -105 792 20 l65 29 0 -559 c0 -553 0 -560 20 -560 20 0
20 7 20 862 0 741 2 860 14 848 8 -8 130 -218 271 -467 l257 -452 -20 -68
c-11 -37 -61 -206 -111 -374 -50 -168 -91 -315 -91 -327 0 -29 28 -29 39 1 5
12 59 191 120 398 l111 375 -196 345 c-107 189 -210 369 -227 399 l-31 55 39
-31 c99 -77 245 -156 465 -250 305 -132 616 -343 805 -546 191 -206 314 -417
391 -673 23 -77 32 -95 47 -95 17 0 19 5 13 39 -9 55 -66 222 -108 311 -191
413 -615 787 -1149 1014 -244 103 -412 203 -525 313 -69 68 -92 95 -105 129
-5 14 -9 99 -9 190 l0 164 569 0 568 0 7 61 c10 97 7 504 -4 604 -30 262 -91
411 -228 558 -69 75 -127 168 -186 303 -45 103 -117 312 -137 399 -45 193 -89
306 -162 415 -144 214 -375 365 -652 426 -67 15 -332 28 -385 18z m-393 -720
c243 -166 573 -257 989 -271 l180 -6 47 -91 c25 -50 73 -133 107 -184 33 -51
60 -100 60 -108 0 -9 -10 -14 -29 -14 -28 0 -30 3 -41 58 -39 188 -186 302
-389 302 -89 0 -194 -21 -247 -48 l-37 -19 37 -7 37 -7 -45 -50 c-45 -50 -86
-138 -86 -185 0 -22 -3 -24 -27 -17 -35 9 -60 9 -95 -1 -25 -7 -28 -6 -28 18
0 47 -41 135 -87 186 l-45 50 31 6 c42 9 32 19 -47 46 -55 19 -88 23 -187 23
-114 0 -123 -2 -187 -32 -36 -17 -85 -50 -108 -73 -42 -42 -100 -149 -100
-185 0 -40 -12 -65 -31 -65 -31 0 -23 37 26 119 100 171 185 385 215 539 7 34
14 62 16 62 2 0 34 -21 71 -46z m350 -489 c96 -139 74 -339 -48 -450 -69 -62
-141 -89 -234 -90 -71 0 -88 4 -147 33 -199 98 -260 335 -132 515 l31 43 169
13 c93 8 192 16 219 20 60 9 91 -10 142 -84z m687 63 l158 -12 34 -45 c68 -92
83 -238 36 -343 -31 -70 -102 -141 -175 -174 -86 -39 -196 -40 -278 -2 -79 36
-133 89 -171 166 -29 59 -33 76 -33 152 0 101 27 169 93 240 l42 43 67 -6 c38
-4 139 -12 227 -19z m-1495 -254 c52 -47 78 -103 84 -189 l6 -70 -22 26 c-42
50 -96 79 -148 79 -27 0 -49 -4 -49 -10 0 -5 16 -10 35 -10 20 0 54 -10 77
-21 39 -20 41 -22 23 -35 -31 -23 -55 -67 -55 -102 0 -36 25 -92 40 -92 14 0
12 14 -7 47 -10 18 -14 39 -10 54 8 32 44 79 60 79 7 0 24 -19 39 -43 21 -34
29 -65 41 -167 15 -116 15 -126 -1 -138 -57 -43 -187 77 -261 240 -82 180 -79
307 8 365 51 34 93 30 140 -13z m2092 13 c48 -32 64 -70 63 -147 -3 -125 -74
-289 -172 -392 -60 -63 -108 -86 -142 -68 -24 13 -24 8 -5 150 11 84 21 124
40 157 30 50 45 53 74 16 30 -38 35 -66 17 -101 -18 -35 -20 -52 -6 -52 14 0
40 55 40 85 0 32 -14 61 -47 97 l-25 26 27 18 c14 9 48 19 76 22 62 6 65 22 4
22 -56 0 -114 -28 -150 -72 l-26 -33 6 75 c16 169 125 265 226 197z m-1075
-12 c15 -10 23 -29 26 -64 11 -108 97 -225 206 -278 50 -24 68 -27 157 -28 88
0 107 3 155 26 83 40 134 90 174 171 20 39 36 80 36 92 0 49 12 67 39 64 25
-3 26 -6 23 -53 -2 -27 -12 -113 -23 -190 -57 -419 -106 -552 -259 -706 -220
-223 -476 -322 -716 -278 -146 27 -309 121 -446 259 -72 73 -93 102 -131 181
-25 52 -52 123 -60 159 -18 77 -51 293 -66 435 -6 55 -13 121 -16 148 -5 42
-4 47 14 47 15 0 22 -9 26 -37 24 -149 128 -270 264 -310 79 -23 190 -14 263
21 109 52 195 169 206 277 5 56 27 79 77 79 17 0 40 -7 51 -15z m-436 -1295
c70 -104 175 -201 265 -246 74 -37 85 -39 169 -39 84 0 97 3 166 36 86 41 169
112 206 175 14 24 28 44 30 44 2 0 4 -187 4 -415 l0 -416 -82 -39 c-46 -22
-123 -51 -173 -66 -78 -23 -109 -27 -230 -28 -164 -1 -244 16 -370 79 l-80 40
-2 520 -3 520 28 -50 c15 -27 47 -79 72 -115z m118 -1015 c88 -23 282 -31 380
-15 86 14 204 51 274 86 26 13 52 24 58 24 6 0 10 -31 10 -79 l0 -80 -53 -25
c-170 -80 -291 -109 -452 -109 -139 1 -249 28 -367 90 l-68 35 0 82 0 82 76
-37 c41 -20 106 -45 142 -54z"/>
<path d="M14889 6961 c-20 -20 -29 -39 -29 -61 0 -43 47 -90 90 -90 45 0 90
47 90 95 0 80 -92 114 -151 56z"/>
<path d="M15719 6961 c-20 -20 -29 -39 -29 -61 0 -43 47 -90 90 -90 39 0 90
47 90 84 0 87 -91 127 -151 67z"/>
<path d="M15300 6611 c0 -92 2 -102 26 -130 33 -40 82 -49 135 -26 39 18 51
41 25 51 -8 3 -28 -2 -45 -10 -40 -21 -48 -20 -76 9 -23 22 -25 32 -25 115 0
83 -1 90 -20 90 -19 0 -20 -7 -20 -99z"/>
<path d="M15014 6319 c-10 -17 6 -27 86 -55 92 -32 204 -54 275 -54 72 0 204
26 284 56 76 29 90 39 74 55 -9 9 -36 4 -108 -20 -193 -64 -308 -64 -497 -1
-100 34 -104 34 -114 19z"/>
<path d="M4320 8214 c-373 -80 -668 -366 -767 -744 -39 -152 -42 -378 -7 -509
6 -21 5 -22 -14 -12 -40 21 -105 13 -156 -19 -51 -33 -70 -65 -81 -140 -16
-109 62 -322 164 -448 l51 -62 -24 -48 c-43 -86 -48 -119 -55 -387 -11 -409
-18 -422 -294 -561 -95 -48 -204 -109 -244 -136 -259 -178 -313 -405 -170
-708 17 -36 31 -67 31 -70 1 -3 -48 -48 -107 -99 -249 -215 -436 -491 -527
-776 -17 -55 -32 -118 -33 -140 l-2 -40 2410 0 2410 0 -2 42 c-1 23 -18 90
-38 149 -133 397 -413 732 -830 992 -108 67 -299 166 -410 211 -121 50 -251
117 -342 177 -98 63 -240 196 -259 241 -11 25 -14 104 -14 341 l0 308 53 43
c118 95 231 264 260 389 9 41 15 51 27 45 8 -3 35 -8 60 -10 37 -4 53 1 92 26
85 54 196 235 229 371 17 75 16 177 -4 222 -32 74 -153 122 -219 87 -20 -11
-21 -9 -14 22 43 217 22 448 -60 642 -127 303 -400 533 -709 598 -108 23 -308
24 -405 3z m-297 -627 c198 -151 464 -245 812 -288 55 -7 205 -12 334 -12
l234 -1 -7 -180 c-16 -406 -79 -819 -151 -981 -81 -184 -302 -378 -525 -461
-68 -25 -87 -28 -215 -28 -112 -1 -151 3 -195 18 -148 50 -328 174 -423 291
-53 66 -105 162 -130 240 -29 92 -67 338 -91 597 l-14 143 43 70 c115 191 210
436 231 603 4 28 8 52 10 52 2 0 41 -28 87 -63z m-498 -687 c63 -39 104 -129
105 -228 l0 -44 -25 30 c-35 42 -105 74 -152 70 -21 -2 -36 -7 -33 -13 3 -5
15 -9 28 -7 21 3 112 -31 112 -41 0 -3 -13 -19 -30 -37 -38 -41 -47 -87 -25
-134 10 -20 24 -36 31 -36 18 0 17 10 -1 34 -23 31 -18 80 11 115 14 17 30 31
35 31 5 0 20 -18 35 -39 21 -32 29 -64 43 -171 l17 -132 -22 -10 c-38 -18 -76
1 -139 65 -107 110 -181 287 -173 417 4 74 17 96 73 131 39 24 70 24 110 -1z
m2093 6 c57 -30 76 -62 80 -136 8 -130 -66 -307 -173 -417 -63 -64 -101 -83
-139 -65 l-22 10 17 130 c13 109 20 138 43 172 14 22 30 40 35 40 5 0 21 -14
35 -31 29 -35 34 -84 11 -115 -18 -24 -19 -34 -2 -34 13 0 28 24 41 63 10 30
-6 76 -35 108 -16 17 -29 33 -29 36 0 10 91 44 112 41 13 -2 24 2 26 7 1 6
-14 11 -33 13 -46 4 -116 -29 -151 -71 l-27 -32 5 65 c7 86 47 172 96 205 42
28 71 31 110 11z m-1546 -1234 c96 -164 212 -282 335 -340 50 -23 71 -27 153
-27 89 0 100 2 172 37 87 41 166 110 206 178 l27 45 5 -225 c6 -252 2 -241 88
-332 l44 -47 -104 -50 c-189 -92 -350 -131 -537 -131 -181 0 -372 53 -510 141
l-64 40 41 42 c22 23 52 60 66 81 l26 39 0 313 c0 173 2 314 4 314 2 0 24 -35
48 -78z m-139 -792 c159 -97 328 -142 532 -143 207 0 399 50 596 155 l77 41
68 -49 c38 -26 71 -50 74 -52 10 -8 -68 -64 -150 -106 -108 -56 -265 -108
-411 -137 -159 -32 -398 -32 -547 0 -125 26 -245 69 -315 112 -68 41 -147 108
-147 122 1 9 123 103 138 106 2 1 40 -21 85 -49z"/>
<path d="M4034 7199 c-28 -5 -72 -17 -98 -29 -49 -21 -140 -79 -134 -86 10
-10 532 42 557 56 20 11 -84 48 -167 60 -76 11 -88 11 -158 -1z"/>
<path d="M4780 7199 c-78 -13 -176 -50 -158 -60 26 -14 546 -64 557 -54 8 9
-128 87 -174 100 -69 20 -160 25 -225 14z"/>
<path d="M4030 6952 c-40 -40 -42 -92 -4 -127 39 -36 87 -34 126 5 26 27 30
36 25 67 -4 20 -15 45 -25 55 -10 10 -35 21 -55 25 -31 5 -40 1 -67 -25z"/>
<path d="M4875 6968 c-52 -30 -62 -102 -20 -143 46 -47 134 -22 149 41 19 72
-65 138 -129 102z"/>
<path d="M4410 6589 l0 -101 34 -34 c24 -24 43 -34 65 -34 37 0 101 29 101 46
0 22 -18 25 -49 9 -41 -21 -58 -19 -86 10 -23 22 -25 32 -25 115 0 83 -1 90
-20 90 -19 0 -20 -7 -20 -101z"/>
<path d="M4197 6293 c-17 -16 -3 -33 47 -57 158 -75 371 -75 534 -1 48 22 65
46 42 60 -5 3 -31 -5 -58 -19 -147 -75 -338 -75 -501 -1 -61 28 -56 27 -64 18z"/>
<path d="M10583 1399 c-117 -22 -193 -112 -193 -228 l0 -60 38 -10 c52 -15
226 -13 293 2 78 19 143 57 147 86 6 40 -27 107 -72 149 -59 54 -134 76 -213
61z m8 -127 c28 -24 30 -76 3 -102 -45 -43 -124 -16 -124 44 0 62 72 97 121
58z"/>
<path d="M11147 1399 c-23 -14 -47 -69 -47 -109 0 -25 -4 -30 -25 -30 -21 0
-25 -5 -25 -30 0 -25 4 -30 25 -30 l25 0 0 -110 0 -110 40 0 39 0 3 108 3 107
43 3 c39 3 42 5 42 32 0 27 -3 29 -42 32 -36 3 -44 7 -46 26 -5 36 17 55 56
49 33 -6 33 -6 30 31 -3 37 -3 37 -53 39 -27 2 -58 -2 -68 -8z"/>
<path d="M12570 1190 l0 -210 40 0 40 0 0 52 0 52 53 -52 c49 -49 56 -52 102
-52 l49 0 -55 58 c-93 96 -91 84 -18 158 l63 64 -49 0 c-45 0 -53 -4 -97 -47
l-48 -47 0 117 0 117 -40 0 -40 0 0 -210z"/>
<path d="M7380 1299 l0 -70 -26 20 c-36 29 -102 28 -139 -1 -34 -27 -55 -75
-55 -129 0 -112 90 -177 180 -130 33 17 40 18 40 6 0 -9 10 -15 25 -15 l25 0
0 195 0 195 -25 0 c-24 0 -25 -2 -25 -71z m-26 -90 c24 -19 26 -27 26 -89 0
-64 -2 -71 -26 -87 -37 -24 -90 -22 -116 4 -15 15 -23 38 -26 77 -4 51 -2 57
26 86 36 36 77 39 116 9z"/>
<path d="M9340 1300 l0 -70 -32 20 c-93 57 -188 -10 -188 -132 0 -66 27 -114
75 -134 46 -19 63 -18 108 6 31 17 37 17 37 5 0 -8 9 -15 20 -15 19 0 20 7 20
195 0 188 -1 195 -20 195 -18 0 -20 -7 -20 -70z m-18 -96 c16 -15 18 -29 16
-88 l-3 -71 -38 -18 c-45 -23 -81 -14 -111 27 -37 49 -22 140 28 165 28 14 84
6 108 -15z"/>
<path d="M9590 1175 l0 -195 25 0 c15 0 25 6 25 14 0 10 9 9 40 -6 101 -50
195 39 176 167 -10 67 -48 105 -110 112 -38 5 -53 2 -77 -16 l-29 -22 0 71 c0
68 -1 70 -25 70 l-25 0 0 -195z m191 26 c50 -51 37 -148 -25 -177 -32 -16 -36
-16 -72 2 l-39 19 -3 71 c-3 68 -1 73 24 93 38 30 79 27 115 -8z"/>
<path d="M7553 1250 c-67 -40 -88 -117 -54 -194 16 -37 29 -51 63 -66 24 -11
54 -20 68 -20 32 0 110 36 110 50 0 19 -25 21 -56 5 -47 -24 -82 -19 -120 19
-59 59 -51 66 81 66 113 0 115 0 115 23 -1 40 -37 105 -69 121 -41 22 -99 20
-138 -4z"/>
<path d="M7843 1260 c-29 -12 -45 -44 -41 -83 3 -35 32 -55 118 -79 33 -10 46
-19 48 -34 7 -51 -65 -71 -124 -35 -23 14 -35 16 -43 8 -19 -19 -13 -27 32
-47 49 -23 67 -24 120 -9 30 8 42 18 53 44 25 60 -9 106 -89 120 -89 17 -102
77 -18 83 26 2 52 -3 66 -12 19 -13 25 -13 34 -2 29 35 -96 72 -156 46z"/>
<path d="M8245 1261 c-29 -12 -51 -41 -65 -84 -30 -96 26 -197 109 -197 23 0
55 7 71 15 29 15 30 15 30 -9 0 -38 -10 -56 -42 -72 -34 -18 -100 -11 -119 12
-9 11 -15 12 -25 3 -8 -6 -14 -15 -14 -20 0 -19 62 -39 119 -39 53 0 65 4 93
29 l33 29 3 166 3 166 -25 0 c-17 0 -26 -6 -26 -16 0 -13 -5 -12 -26 5 -28 22
-82 27 -119 12z m108 -42 c33 -18 37 -28 37 -101 0 -58 -3 -69 -22 -82 -35
-25 -90 -20 -119 10 -19 21 -24 36 -24 81 0 48 4 58 28 79 31 26 66 31 100 13z"/>
<path d="M8610 1263 c-8 -3 -23 -12 -32 -21 -16 -14 -18 -13 -18 1 0 11 -8 17
-25 17 l-25 0 0 -140 0 -140 25 0 25 0 0 110 0 109 30 16 c39 20 73 19 93 -3
14 -15 17 -40 17 -125 l0 -107 25 0 25 0 0 104 c0 111 -11 161 -40 176 -20 11
-75 12 -100 3z"/>
<path d="M8873 1250 c-113 -68 -84 -247 44 -274 58 -13 162 29 136 55 -9 9
-19 8 -46 -5 -60 -28 -111 -16 -140 34 -29 48 -25 50 98 50 113 0 115 0 115
23 -1 40 -37 105 -69 121 -41 22 -99 20 -138 -4z"/>
<path d="M11402 1261 c-8 -5 -34 -6 -58 -3 l-44 5 0 -142 0 -141 40 0 40 0 0
93 c0 101 12 127 58 127 21 0 67 52 55 64 -9 9 -76 7 -91 -3z"/>
<path d="M11544 1251 c-89 -54 -84 -204 8 -262 40 -25 131 -22 172 4 25 17 26
18 9 43 -12 19 -21 24 -37 19 -56 -19 -94 -17 -115 4 -12 12 -19 26 -16 31 4
6 49 10 102 10 l96 0 -5 52 c-5 44 -11 57 -42 85 -31 29 -43 33 -88 33 -34 0
-64 -7 -84 -19z"/>
<path d="M11853 1250 c-18 -10 -39 -33 -48 -49 -21 -42 -19 -129 4 -167 38
-62 128 -81 210 -43 l45 20 -26 25 c-21 22 -29 24 -46 15 -32 -17 -87 -13
-105 7 -33 36 -22 42 83 42 l100 0 0 30 c0 48 -26 98 -62 120 -43 26 -113 26
-155 0z"/>
<path d="M12202 1254 c-12 -8 -22 -10 -22 -5 0 6 -18 11 -40 11 l-40 0 0 -200
0 -200 40 0 40 0 0 70 0 71 30 -16 c58 -30 137 -7 171 49 26 42 25 130 -1 173
-35 58 -127 83 -178 47z m98 -76 c30 -33 27 -91 -6 -117 -35 -27 -59 -26 -89
4 -35 34 -34 86 1 114 34 27 68 27 94 -1z"/>
<path d="M9880 1252 c0 -4 25 -69 56 -143 54 -130 55 -135 40 -166 -11 -22
-23 -32 -43 -35 -17 -2 -29 -10 -31 -20 -5 -25 68 -25 91 0 15 16 157 346 157
364 0 4 -10 8 -22 8 -20 0 -29 -16 -67 -111 -28 -71 -46 -106 -52 -98 -4 7
-25 57 -46 111 -32 84 -41 98 -60 98 -13 0 -23 -4 -23 -8z"/>
<path d="M12440 1120 l0 -140 40 0 40 0 0 140 0 140 -40 0 -40 0 0 -140z"/>
<path d="M10847 1123 c-4 -6 -38 -22 -75 -35 -58 -20 -86 -23 -209 -23 -79 0
-143 -3 -143 -7 0 -18 95 -87 135 -98 66 -18 148 -7 204 27 46 29 107 111 99
134 -3 9 -6 10 -11 2z"/>
</g>
</svg>
