<?xml version="1.0" standalone="no"?>
<!DOCTYPE svg PUBLIC "-//W3C//DTD SVG 20010904//EN"
 "http://www.w3.org/TR/2001/REC-SVG-20010904/DTD/svg10.dtd">
<svg version="1.0" xmlns="http://www.w3.org/2000/svg"
 width="576.000000pt" height="512.000000pt" viewBox="0 0 576.000000 512.000000"
 preserveAspectRatio="xMidYMid meet">
<metadata>
Created by potrace 1.15, written by Peter Selinger 2001-2017
</metadata>
<g transform="translate(0.000000,512.000000) scale(0.100000,-0.100000)"
fill="#000000" stroke="none">
<path d="M197 4780 c-73 -28 -131 -81 -166 -152 l-31 -61 0 -1761 0 -1761 24
-51 c35 -75 86 -127 156 -158 54 -25 83 -29 258 -42 837 -60 1533 -212 1994
-434 128 -62 217 -51 268 32 20 33 20 55 20 1902 l0 1869 -21 33 c-24 39 -110
92 -274 170 -438 207 -1075 353 -1825 419 -236 20 -342 19 -403 -5z"/>
<path d="M5146 4784 c-752 -68 -1384 -215 -1824 -425 -164 -78 -237 -123 -261
-163 l-21 -33 0 -1870 0 -1870 23 -33 c54 -81 141 -90 265 -30 460 222 1159
374 1996 434 188 14 203 17 262 46 71 35 117 82 151 156 l23 51 -2 1769 -3
1769 -23 44 c-35 64 -104 127 -168 150 -65 25 -184 26 -418 5z"/>
</g>
</svg>
