<?xml version="1.0" standalone="no"?>
<!DOCTYPE svg PUBLIC "-//W3C//DTD SVG 20010904//EN"
 "http://www.w3.org/TR/2001/REC-SVG-20010904/DTD/svg10.dtd">
<svg version="1.0" xmlns="http://www.w3.org/2000/svg"
 width="878.000000pt" height="876.000000pt" viewBox="0 0 878.000000 876.000000"
 preserveAspectRatio="xMidYMid meet">
<metadata>
Created by potrace 1.15, written by Peter Selinger 2001-2017
</metadata>
<g transform="translate(0.000000,876.000000) scale(0.100000,-0.100000)"
fill="#000000" stroke="none">
<path d="M1830 8740 c-393 -32 -754 -232 -987 -547 -108 -145 -201 -351 -237
-523 -35 -167 -37 -304 -33 -3400 3 -2720 5 -3064 19 -3135 105 -538 465 -934
985 -1086 172 -50 55 -49 3384 -49 l3105 0 50 25 c80 40 113 110 114 242 0 90
-17 154 -51 196 -41 49 -77 67 -152 74 l-63 6 -12 82 c-37 252 -40 631 -8 875
23 168 23 168 65 189 110 57 191 174 211 306 7 48 10 1076 8 3250 l-3 3180
-23 55 c-48 114 -128 194 -242 242 l-55 23 -2990 1 c-1644 1 -3033 -2 -3085
-6z m380 -3545 l0 -3015 -182 0 c-290 0 -468 -35 -673 -134 -60 -29 -140 -74
-178 -99 l-67 -47 3 2807 c3 3174 -6 2847 87 3040 103 211 324 388 546 437 94
21 115 23 302 24 l162 2 0 -3015z m5480 0 l0 -3015 -2470 0 -2470 0 0 3015 0
3015 2470 0 2470 0 0 -3015z m-219 -3672 c-19 -159 -19 -713 1 -870 l14 -113
-2831 0 c-3047 0 -2920 -2 -3090 50 -242 75 -414 244 -446 439 -38 237 149
471 450 561 163 50 56 48 3076 49 l2841 1 -15 -117z"/>
<path d="M3718 6544 c-93 -28 -138 -115 -138 -262 1 -131 32 -196 115 -237
l51 -25 1489 2 1490 3 41 28 c66 45 88 94 92 214 5 119 -11 182 -59 231 -64
66 29 62 -1578 61 -1238 0 -1463 -3 -1503 -15z"/>
<path d="M3689 5437 c-29 -16 -54 -40 -74 -72 -29 -47 -30 -52 -30 -169 0
-110 2 -125 25 -166 31 -54 75 -86 143 -100 36 -7 496 -10 1502 -8 1393 3
1451 4 1485 22 89 47 120 112 120 250 0 135 -31 204 -110 244 l-44 22 -1487 0
-1486 0 -44 -23z"/>
</g>
</svg>
