<?xml version="1.0" standalone="no"?>
<!DOCTYPE svg PUBLIC "-//W3C//DTD SVG 20010904//EN"
 "http://www.w3.org/TR/2001/REC-SVG-20010904/DTD/svg10.dtd">
<svg version="1.0" xmlns="http://www.w3.org/2000/svg"
 width="944.000000pt" height="630.000000pt" viewBox="0 0 944.000000 630.000000"
 preserveAspectRatio="xMidYMid meet">
<metadata>
Created by potrace 1.15, written by Peter Selinger 2001-2017
</metadata>
<g transform="translate(0.000000,630.000000) scale(0.100000,-0.100000)"
fill="#000000" stroke="none">
<path d="M8318 5700 c-141 -3 -260 -9 -264 -13 -5 -4 -11 -29 -14 -55 l-5 -47
-104 -3 c-63 -2 -111 -8 -119 -15 -12 -9 -14 -31 -9 -103 4 -78 9 -98 34 -136
48 -76 145 -145 230 -163 25 -5 42 -19 68 -58 38 -58 87 -101 140 -123 l35
-14 0 -89 0 -89 -85 -3 c-62 -3 -89 -8 -101 -21 -34 -34 -9 -38 221 -38 229 0
255 4 222 37 -11 11 -44 18 -104 22 l-88 6 -3 65 c-4 92 0 101 64 134 39 21
72 49 111 97 39 49 65 71 91 80 103 33 184 96 225 174 25 48 37 199 18 218 -7
7 -56 14 -114 17 l-102 5 -3 47 c-3 52 -28 80 -67 76 -11 -1 -136 -5 -277 -8z
m240 -66 c21 -6 22 -10 22 -141 0 -156 -14 -224 -66 -324 -60 -115 -118 -152
-209 -135 -66 13 -143 113 -181 235 -16 51 -31 303 -20 344 l6 27 213 0 c116
0 222 -3 235 -6z m-534 -120 c12 -4 16 -20 17 -58 0 -28 6 -86 13 -128 7 -43
9 -83 5 -89 -16 -27 -152 70 -185 133 -15 28 -21 118 -10 136 8 13 132 17 160
6z m804 -51 c5 -81 -49 -164 -135 -207 -53 -27 -66 -22 -60 22 3 20 9 62 12
92 15 142 14 138 43 143 15 2 52 4 82 3 l55 -1 3 -52z"/>
<path d="M4815 5691 c-76 -21 -132 -65 -166 -133 -28 -55 -31 -156 -5 -209 24
-52 73 -98 131 -125 107 -50 221 -15 304 93 30 38 35 53 39 117 4 61 1 79 -18
117 -28 56 -65 96 -110 119 -42 21 -133 32 -175 21z m145 -81 c112 -79 123
-206 27 -296 -85 -81 -197 -68 -272 30 -71 94 -24 240 91 281 47 17 118 10
154 -15z"/>
<path d="M994 5623 c-17 -8 -38 -28 -48 -43 -14 -25 -40 -129 -66 -265 -4 -22
-15 -76 -25 -120 -37 -163 -19 -266 58 -345 42 -43 126 -80 182 -80 115 0 228
94 269 223 3 11 16 17 35 17 25 0 30 -5 36 -32 9 -38 39 -94 68 -126 36 -39
135 -82 188 -82 93 0 206 75 248 165 23 50 28 151 11 214 -12 43 -51 213 -77
331 -15 70 -24 91 -54 122 -34 36 -39 38 -101 38 -49 0 -72 -5 -88 -18 -20
-16 -21 -20 -7 -34 13 -13 23 -14 55 -5 47 12 93 -2 115 -37 15 -22 47 -161
55 -233 3 -37 1 -43 -15 -43 -10 0 -24 5 -30 11 -17 17 -126 23 -184 9 -42
-10 -64 -24 -104 -64 -28 -28 -60 -70 -71 -93 -15 -35 -24 -43 -46 -43 -23 0
-32 8 -52 48 -30 58 -98 126 -148 147 -52 21 -137 19 -199 -5 -32 -13 -56 -17
-61 -12 -6 6 2 61 20 143 25 112 35 137 57 156 27 24 72 29 110 13 13 -5 26
-3 38 8 16 14 16 16 1 34 -22 23 -124 24 -170 1z m185 -403 c52 -26 97 -82
111 -137 23 -95 -49 -218 -144 -244 -107 -29 -217 39 -247 153 -11 40 -10 55
4 100 38 121 170 182 276 128z m599 -4 c56 -28 76 -49 97 -99 34 -81 9 -174
-63 -239 -85 -77 -206 -60 -281 39 -78 101 -41 252 74 304 56 26 116 24 173
-5z"/>
<path d="M5025 5129 c-141 -28 -165 -30 -232 -13 -148 37 -265 -8 -332 -129
-18 -31 -21 -55 -21 -142 0 -156 -32 -145 422 -145 402 0 418 2 438 56 20 51
12 159 -16 221 -32 73 -56 99 -119 128 -64 29 -91 34 -140 24z m-267 -75 c68
-17 164 -15 256 5 131 29 225 -61 226 -217 0 -69 -1 -73 -26 -82 -14 -6 -165
-10 -356 -10 -387 0 -368 -5 -368 94 1 101 52 181 136 211 50 18 56 18 132 -1z"/>
<path d="M8308 1253 c-9 -10 -41 -67 -71 -128 -30 -60 -64 -118 -74 -128 -13
-11 -50 -21 -103 -28 -122 -15 -203 -36 -218 -56 -23 -32 -2 -66 104 -168 57
-55 104 -107 104 -115 0 -8 -9 -64 -20 -124 -24 -132 -25 -179 -4 -200 25 -26
50 -19 180 49 68 36 132 65 142 65 9 0 71 -29 136 -65 66 -36 130 -65 141 -65
35 0 55 31 55 86 0 45 -21 178 -36 232 -5 18 8 37 78 110 137 141 135 139 128
192 -4 31 -9 32 -208 60 -40 6 -82 14 -95 19 -15 6 -42 48 -86 135 -35 70 -72
131 -82 136 -27 15 -54 12 -71 -7z m100 -173 c27 -52 51 -105 54 -118 7 -26
62 -52 110 -52 28 0 57 -4 176 -26 12 -3 22 -8 22 -12 0 -5 -45 -53 -99 -108
l-100 -100 6 -44 c4 -42 25 -160 39 -222 4 -19 2 -29 -8 -33 -8 -3 -68 23
-134 60 -65 36 -127 65 -136 65 -10 0 -39 -12 -65 -27 -26 -14 -70 -38 -98
-52 -27 -14 -56 -31 -63 -38 -7 -7 -20 -13 -29 -13 -17 0 -17 3 8 150 5 36 13
85 16 110 l5 45 -101 98 c-56 53 -101 103 -101 110 0 10 19 16 63 20 97 9 193
26 219 37 16 8 39 44 72 113 59 126 75 152 87 140 5 -5 31 -51 57 -103z"/>
<path d="M4883 1220 c-327 -5 -343 -6 -370 -26 -15 -12 -37 -36 -48 -55 -19
-32 -20 -55 -23 -369 -4 -381 0 -419 55 -472 l34 -33 362 -6 c199 -3 370 -1
380 3 21 11 22 31 1 49 -13 10 -14 24 -9 68 4 30 13 64 21 77 12 18 14 81 12
382 -2 224 -7 365 -13 371 -17 16 -47 17 -402 11z m-265 -386 l-3 -327 -48
-15 c-42 -13 -50 -13 -58 -1 -5 8 -9 141 -9 297 0 220 3 290 14 316 16 39 39
55 79 56 l27 0 -2 -326z m607 -4 l0 -325 -265 0 -265 0 -3 315 c-1 173 0 321
3 328 3 10 61 12 267 10 l263 -3 0 -325z m-21 -437 c13 -80 45 -73 -326 -73
-294 0 -333 2 -350 17 -22 20 -23 51 -1 75 15 17 39 18 343 18 l327 0 7 -37z"/>
<path d="M4852 983 c-66 -4 -86 -19 -62 -48 11 -13 40 -15 173 -13 139 3 161
5 171 20 19 31 -7 41 -116 43 -57 1 -131 0 -166 -2z"/>
<path d="M4787 854 c-13 -13 -7 -42 9 -48 24 -9 317 -7 332 3 8 5 12 17 10 27
-3 18 -16 19 -174 22 -93 1 -173 -1 -177 -4z"/>
<path d="M1357 1123 c-98 -27 -494 -166 -505 -177 -18 -17 -18 -71 -2 -91 6
-8 21 -15 32 -17 36 -5 44 -31 24 -76 -17 -37 -17 -41 -2 -64 15 -23 15 -33 1
-123 -18 -113 -13 -128 44 -123 32 3 36 7 40 33 1 17 -3 61 -10 99 -10 55 -10
74 0 100 13 30 14 40 9 81 -4 24 24 31 63 15 34 -14 35 -24 17 -148 l-12 -85
32 -27 c78 -65 368 -88 519 -42 97 30 124 54 124 112 0 25 -3 65 -8 90 -5 25
-7 54 -5 65 3 20 51 45 160 82 60 20 88 57 78 100 -8 31 -39 44 -301 126 -215
67 -266 79 -298 70z m111 -72 c9 -5 62 -23 117 -41 55 -17 107 -34 115 -37 8
-3 51 -18 95 -33 51 -16 80 -31 80 -40 0 -9 -26 -23 -70 -37 -38 -13 -139 -45
-223 -73 -84 -27 -169 -50 -190 -50 -20 0 -71 11 -112 24 -41 13 -101 32 -133
41 -66 19 -70 36 -11 46 162 27 242 42 262 50 35 14 25 43 -16 47 -34 3 -215
-28 -317 -55 -91 -24 -128 -26 -150 -10 -16 12 -17 18 -7 30 7 8 27 18 45 21
18 3 113 33 212 65 179 59 262 73 303 52z m-254 -326 c11 -8 29 -15 41 -15 12
0 25 -4 31 -9 15 -15 113 -29 147 -21 18 4 71 20 119 35 48 16 90 26 94 23 9
-9 26 -157 19 -169 -24 -38 -215 -77 -326 -66 -91 10 -197 38 -214 57 -13 14
-14 28 -5 90 6 40 13 76 16 81 8 14 57 10 78 -6z"/>
</g>
</svg>
