<?xml version="1.0" standalone="no"?>
<!DOCTYPE svg PUBLIC "-//W3C//DTD SVG 20010904//EN"
 "http://www.w3.org/TR/2001/REC-SVG-20010904/DTD/svg10.dtd">
<svg version="1.0" xmlns="http://www.w3.org/2000/svg"
 width="100.000000pt" height="95.000000pt" viewBox="0 0 100.000000 95.000000"
 preserveAspectRatio="xMidYMid meet">
<metadata>
Created by potrace 1.15, written by Peter Selinger 2001-2017
</metadata>
<g transform="translate(0.000000,95.000000) scale(0.100000,-0.100000)"
fill="#000000" stroke="none">
<path d="M421 776 c-78 -53 -310 -245 -327 -272 -22 -33 -9 -47 35 -39 l38 6
6 -177 c3 -111 10 -181 17 -188 13 -13 224 -16 236 -3 5 4 11 48 14 97 3 49
10 93 15 98 15 15 49 22 61 14 6 -4 15 -52 20 -107 l9 -100 30 -6 c44 -10 198
-10 212 -1 9 5 15 64 19 190 l7 182 39 0 c49 0 49 14 -2 76 -23 28 -42 64 -46
84 -10 68 -15 80 -28 80 -7 0 -21 -9 -31 -20 -10 -11 -23 -20 -30 -20 -6 0
-40 24 -76 53 -125 103 -139 106 -218 53z m159 -101 c30 -23 79 -64 108 -90
l52 -47 0 -173 c0 -211 -4 -225 -63 -225 -71 0 -81 14 -88 124 -3 53 -9 99
-12 102 -3 4 -44 9 -91 11 l-85 6 -11 -27 c-5 -15 -10 -60 -10 -99 0 -97 -15
-119 -78 -115 -68 4 -72 17 -71 228 l0 175 75 60 c42 33 98 77 126 97 57 43
56 43 148 -27z"/>
</g>
</svg>
