<?xml version="1.0" standalone="no"?>
<!DOCTYPE svg PUBLIC "-//W3C//DTD SVG 20010904//EN"
 "http://www.w3.org/TR/2001/REC-SVG-20010904/DTD/svg10.dtd">
<svg version="1.0" xmlns="http://www.w3.org/2000/svg"
 width="1014.000000pt" height="116.000000pt" viewBox="0 0 1014.000000 116.000000"
 preserveAspectRatio="xMidYMid meet">
<metadata>
Created by potrace 1.15, written by Peter Selinger 2001-2017
</metadata>
<g transform="translate(0.000000,116.000000) scale(0.100000,-0.100000)"
fill="#000000" stroke="none">
<path d="M769 890 c-41 -33 -106 -86 -146 -118 -39 -31 -74 -63 -77 -70 -10
-23 3 -32 29 -20 14 6 28 8 32 4 4 -4 7 -69 8 -146 0 -86 4 -143 11 -150 7 -7
45 -10 100 -8 l89 3 3 65 c4 102 7 110 47 110 39 0 37 4 39 -95 1 -33 5 -66 9
-72 9 -14 182 -19 191 -5 3 5 14 209 16 294 0 4 14 5 30 2 40 -9 39 9 -5 57
-28 31 -35 47 -35 78 0 48 -18 63 -38 33 -8 -12 -20 -22 -26 -22 -6 0 -42 27
-80 60 -90 77 -102 77 -197 0z m176 -46 c39 -31 82 -68 98 -82 l27 -26 0 -151
c0 -104 -4 -155 -12 -163 -16 -16 -80 -15 -101 1 -12 9 -17 31 -19 92 l-3 80
-64 8 c-85 10 -91 4 -91 -93 0 -87 -6 -97 -62 -98 -63 -2 -68 10 -68 178 l0
149 38 30 c20 17 64 53 97 80 33 27 67 50 75 50 8 1 47 -24 85 -55z"/>
</g>
</svg>
