<?xml version="1.0" standalone="no"?>
<!DOCTYPE svg PUBLIC "-//W3C//DTD SVG 20010904//EN"
 "http://www.w3.org/TR/2001/REC-SVG-20010904/DTD/svg10.dtd">
<svg version="1.0" xmlns="http://www.w3.org/2000/svg"
 width="1024.000000pt" height="1024.000000pt" viewBox="0 0 1024.000000 1024.000000"
 preserveAspectRatio="xMidYMid meet">
<metadata>
Created by potrace 1.15, written by Peter Selinger 2001-2017
</metadata>
<g transform="translate(0.000000,1024.000000) scale(0.100000,-0.100000)"
fill="#000000" stroke="none">
<path d="M4750 10234 c-19 -2 -91 -9 -160 -14 -1308 -112 -2563 -712 -3363
-1607 -215 -242 -425 -530 -573 -788 -370 -645 -586 -1394 -645 -2233 -17
-247 -6 -843 20 -1052 83 -671 271 -1274 574 -1835 836 -1552 2373 -2557 4121
-2695 166 -13 626 -13 792 0 2340 185 4256 1932 4654 4246 49 281 62 436 67
811 9 600 -34 1010 -157 1508 -193 783 -542 1448 -1067 2038 -728 815 -1829
1386 -3023 1566 -302 45 -414 53 -815 56 -214 2 -406 1 -425 -1z m930 -179
c440 -49 818 -130 1190 -255 1451 -487 2505 -1532 2958 -2930 113 -349 193
-749 234 -1170 20 -210 17 -865 -5 -1055 -120 -1023 -489 -1893 -1135 -2675
-122 -148 -473 -499 -622 -622 -801 -662 -1712 -1039 -2755 -1140 -168 -16
-682 -16 -850 0 -1043 101 -1954 478 -2755 1140 -149 123 -500 474 -622 622
-646 782 -1015 1652 -1135 2675 -22 190 -25 845 -5 1055 80 826 298 1516 678
2142 777 1281 2180 2091 3859 2228 173 14 795 4 965 -15z"/>
<path d="M4834 9691 c-97 -24 -181 -92 -223 -180 -23 -51 -26 -68 -26 -176 0
-136 14 -180 79 -252 131 -145 453 -132 571 23 93 122 107 319 32 446 -37 61
-103 110 -180 133 -53 16 -197 19 -253 6z m207 -67 c15 -7 39 -27 53 -45 111
-132 87 -444 -39 -516 -47 -27 -137 -31 -188 -9 -84 36 -129 127 -135 277 -5
127 11 196 60 253 54 62 171 81 249 40z"/>
<path d="M5487 9661 c-4 -17 1 -22 21 -27 47 -12 54 -23 47 -78 -13 -108 -66
-482 -71 -502 -3 -12 -16 -26 -30 -33 -37 -16 -29 -29 24 -36 26 -4 132 -20
237 -36 104 -15 192 -25 196 -21 3 4 11 34 16 67 6 33 15 68 19 78 6 15 3 18
-16 15 -18 -2 -27 -14 -38 -47 l-15 -44 -96 7 c-138 9 -151 13 -151 45 0 49
70 513 80 532 8 13 21 19 45 19 27 0 35 4 35 18 0 16 -18 21 -129 36 -71 9
-138 20 -149 22 -14 4 -21 0 -25 -15z"/>
<path d="M4205 9605 c-38 -13 -78 -24 -87 -24 -20 -1 -30 -14 -23 -33 4 -9 18
-12 45 -10 48 5 40 20 115 -236 36 -124 49 -182 40 -178 -21 8 -298 195 -415
280 -58 42 -112 75 -120 72 -31 -8 -175 -50 -178 -52 -1 0 0 -9 4 -18 5 -13
16 -16 43 -14 32 3 37 0 52 -32 15 -33 130 -429 144 -498 6 -30 4 -33 -29 -47
-37 -16 -41 -22 -28 -42 6 -10 21 -9 68 7 32 10 78 24 102 30 32 8 42 16 42
31 0 19 -4 20 -40 14 -37 -6 -41 -5 -51 22 -16 39 -129 427 -125 430 1 1 81
-52 177 -118 96 -67 224 -154 284 -194 102 -67 113 -72 153 -67 35 3 43 8 39
21 -83 281 -158 549 -163 580 -6 38 -5 40 30 55 25 11 34 19 30 30 -8 21 -24
19 -109 -9z"/>
<path d="M6329 9466 c-113 -40 -186 -130 -223 -273 -55 -210 52 -370 284 -429
211 -54 386 63 446 298 29 113 -1 223 -83 299 -53 49 -81 65 -167 94 -84 28
-196 33 -257 11z m233 -62 c53 -18 107 -68 124 -116 29 -79 9 -219 -46 -328
-33 -66 -104 -135 -149 -145 -86 -19 -193 31 -230 107 -52 107 -9 324 85 428
63 70 125 85 216 54z"/>
<path d="M3278 9307 c-61 -34 -75 -46 -68 -58 10 -18 8 -31 -57 -251 -25 -87
-49 -158 -52 -158 -9 0 -121 222 -121 240 0 8 12 24 27 36 17 14 24 26 20 37
-6 15 -19 10 -99 -33 -51 -28 -112 -61 -135 -73 -62 -31 -57 -68 5 -45 26 10
35 10 46 -2 16 -16 216 -386 249 -459 l19 -44 -31 -26 c-23 -19 -28 -30 -21
-41 7 -12 30 -4 132 49 140 73 151 80 139 100 -8 12 -14 12 -41 1 -27 -11 -34
-11 -48 4 -25 25 -131 220 -121 224 10 4 188 -56 315 -107 l97 -39 84 45 c98
53 106 74 28 77 -35 2 -107 25 -235 75 -102 39 -191 76 -199 80 -11 7 -6 30
24 122 54 161 78 213 113 238 19 13 29 27 25 36 -7 20 -8 20 -95 -28z"/>
<path d="M7185 9076 c-22 -7 -54 -20 -71 -29 -45 -23 -118 -109 -151 -175 -24
-50 -28 -69 -28 -147 0 -79 4 -97 29 -146 53 -106 170 -196 315 -243 135 -43
122 -47 179 44 46 71 54 80 75 75 16 -5 26 -2 30 8 8 22 -232 170 -251 154
-12 -9 -6 -18 27 -47 23 -19 41 -38 41 -43 0 -4 -17 -34 -37 -67 -26 -41 -44
-60 -58 -60 -32 1 -107 39 -143 73 -56 54 -76 102 -76 187 0 64 4 85 31 140
41 87 92 143 158 176 101 49 220 19 311 -78 60 -65 70 -92 48 -140 -13 -30
-15 -41 -6 -50 14 -14 13 -14 71 57 23 27 41 55 41 61 0 21 -113 126 -189 176
-121 79 -246 106 -346 74z"/>
<path d="M2389 8759 c-101 -78 -190 -144 -196 -146 -15 -6 -16 -13 -4 -31 6
-11 15 -10 45 4 l37 18 32 -39 c17 -21 96 -124 175 -229 139 -186 142 -192
136 -230 -3 -21 -2 -37 2 -35 5 2 95 69 201 147 l192 144 -46 69 c-59 88 -89
83 -52 -8 16 -39 9 -48 -100 -136 -61 -48 -77 -56 -85 -45 -6 8 -40 52 -75 98
-35 47 -68 90 -73 97 -11 13 103 103 130 103 9 0 28 -11 42 -25 23 -22 29 -24
39 -11 10 11 0 29 -50 95 -34 45 -68 81 -75 81 -21 0 -24 -16 -9 -36 8 -10 15
-27 15 -36 0 -21 -116 -112 -134 -105 -21 8 -138 176 -133 190 7 18 152 117
170 117 9 0 24 -11 35 -25 21 -26 37 -32 46 -16 7 10 -62 131 -74 131 -3 0
-90 -64 -191 -141z"/>
<path d="M7930 8685 c-11 -13 -9 -19 9 -38 11 -13 21 -28 21 -35 0 -21 -336
-414 -370 -432 -13 -7 -25 -4 -45 12 -23 18 -28 19 -41 6 -13 -12 -1 -26 87
-104 136 -119 134 -118 148 -100 9 11 6 20 -14 44 l-25 30 37 49 c48 64 272
319 316 362 l35 33 30 -21 c26 -18 31 -19 42 -5 8 9 9 18 4 23 -18 16 -189
165 -205 178 -14 11 -18 11 -29 -2z"/>
<path d="M4830 8589 c-1527 -134 -2784 -1271 -3069 -2779 -54 -284 -73 -721
-43 -985 88 -768 389 -1433 898 -1986 565 -612 1307 -983 2159 -1081 142 -16
548 -16 690 0 594 68 1130 266 1593 589 762 531 1281 1345 1431 2248 66 393
62 834 -10 1215 -249 1314 -1238 2363 -2535 2688 -351 88 -761 122 -1114 91z
m1401 -764 c36 -12 91 -39 122 -59 73 -48 180 -163 212 -227 52 -102 77 -259
56 -352 l-6 -29 -27 21 c-63 50 -117 66 -223 65 -55 0 -113 -6 -128 -12 -30
-13 -29 -20 12 -72 l19 -24 57 38 c31 20 58 36 59 34 28 -35 56 -87 56 -104 0
-17 5 -20 29 -16 53 8 111 -37 111 -87 0 -17 6 -21 30 -21 37 0 70 -31 70 -65
0 -19 5 -25 20 -25 26 0 70 -43 70 -68 0 -13 9 -22 25 -26 31 -8 46 -56 32
-106 -33 -127 -149 -251 -276 -295 l-36 -12 52 -26 52 -27 -21 -47 c-50 -114
-153 -241 -230 -285 l-37 -21 68 -77 c226 -256 331 -554 331 -941 0 -237 -66
-468 -165 -578 l-35 -38 73 -36 c79 -39 160 -112 213 -192 54 -81 77 -156 82
-272 4 -88 1 -114 -22 -193 -37 -130 -72 -197 -133 -258 -95 -95 -233 -139
-408 -128 -106 6 -175 21 -375 80 -221 65 -329 59 -472 -28 -123 -75 -190 -78
-275 -12 -54 42 -95 95 -119 155 l-17 44 -30 -58 c-32 -65 -109 -144 -165
-171 -76 -36 -174 -13 -262 61 -77 65 -121 80 -230 79 -84 0 -106 -5 -195 -38
-273 -103 -294 -109 -412 -114 -185 -8 -294 25 -396 118 -103 94 -151 224
-151 410 1 129 18 208 66 307 55 112 159 195 262 209 l44 6 -45 62 c-90 122
-126 216 -154 401 -25 173 -26 387 0 510 45 218 163 426 364 641 38 41 68 76
66 78 -2 2 -29 19 -59 38 -72 46 -167 148 -207 225 -18 33 -33 65 -33 71 0 5
19 22 41 37 51 33 129 104 129 117 0 5 -23 39 -52 76 -95 124 -133 242 -126
387 8 147 59 235 137 235 22 0 43 -5 46 -11 5 -7 12 -5 23 5 28 24 67 29 101
12 28 -15 34 -15 61 -1 33 17 63 13 92 -12 15 -13 19 -13 40 1 47 33 104 9
123 -53 7 -22 8 -23 17 -7 14 26 86 56 134 56 l42 0 -12 -37 c-8 -25 -11 -84
-8 -170 l4 -133 29 0 c27 0 29 3 29 39 0 75 30 196 66 270 70 141 226 264 428
337 54 19 122 46 151 60 l52 26 42 -21 c23 -12 79 -35 124 -52 45 -16 118 -51
162 -76 251 -145 338 -268 360 -509 l7 -72 86 -7 c48 -3 96 -9 107 -11 17 -4
20 1 22 32 1 30 11 47 51 87 l50 49 -180 221 c-143 176 -176 223 -166 232 7 6
43 37 80 69 l68 58 69 -73 68 -74 22 35 c40 65 54 136 47 232 -3 49 -13 104
-21 124 -8 20 -15 38 -15 40 0 9 101 -10 161 -31z m-2340 -14 c16 -16 29 -39
29 -51 0 -12 -13 -35 -29 -51 -16 -16 -39 -29 -51 -29 -28 0 -80 52 -80 80 0
28 52 80 80 80 12 0 35 -13 51 -29z m215 -4 c50 -43 29 -116 -37 -132 -19 -5
-34 0 -57 20 -40 34 -43 75 -7 110 30 31 66 32 101 2z m182 -90 c45 -42 9
-127 -54 -127 -79 0 -103 114 -31 145 35 15 52 11 85 -18z m-573 -22 c30 -30
32 -64 4 -99 -35 -45 -106 -33 -128 23 -10 24 -10 34 3 59 25 49 82 57 121 17z
m670 -160 c30 -30 32 -64 4 -99 -35 -45 -106 -33 -128 23 -10 24 -10 34 3 59
25 49 82 57 121 17z m-786 -2 c55 -47 24 -133 -48 -133 -40 0 -63 18 -75 57
-8 24 15 78 36 86 27 11 67 6 87 -10z m796 -188 c49 -48 16 -125 -54 -125 -70
0 -100 73 -51 125 31 33 73 33 105 0z m-780 -20 c30 -30 32 -64 4 -99 -36 -46
-119 -28 -133 29 -7 27 15 80 36 88 32 13 70 6 93 -18z m-157 -4129 c112 -57
290 -69 585 -41 213 21 738 25 827 7 81 -17 147 -45 183 -79 l27 -27 28 27
c35 34 101 62 182 79 89 18 606 14 817 -7 361 -34 511 -12 657 100 27 20 50
34 53 32 7 -8 -16 -206 -32 -269 -44 -175 -143 -266 -332 -305 -70 -14 -114
-15 -428 -3 -473 17 -668 -2 -809 -78 -50 -27 -126 -105 -126 -128 0 -8 -4
-14 -10 -14 -5 0 -10 6 -10 13 0 25 -72 98 -122 123 -135 68 -334 88 -728 72
-297 -11 -439 -7 -520 18 -142 42 -250 124 -300 228 -26 54 -53 163 -75 305
l-7 43 53 -40 c30 -22 69 -47 87 -56z"/>
<path d="M6200 7671 c0 -122 -39 -226 -117 -311 l-51 -55 -43 50 c-101 115
-91 107 -118 86 l-25 -19 138 -173 c179 -224 161 -207 186 -184 11 10 20 21
20 25 0 3 -25 40 -56 81 l-55 74 28 23 c59 47 129 66 248 66 83 0 120 -4 149
-17 22 -9 41 -15 44 -13 9 10 -21 113 -51 174 -39 81 -117 159 -206 206 -38
20 -74 36 -80 36 -6 0 -11 -20 -11 -49z"/>
<path d="M4972 7390 c-116 -93 -162 -207 -178 -447 l-7 -103 62 0 c155 0 184
66 179 403 l-3 189 -53 -42z"/>
<path d="M5140 7313 c1 -173 16 -342 35 -391 23 -57 71 -82 156 -82 l62 0 -7
93 c-14 190 -38 281 -98 371 -27 41 -122 126 -141 126 -4 0 -7 -53 -7 -117z"/>
<path d="M4730 7296 c-105 -61 -163 -126 -189 -212 -12 -37 -24 -107 -28 -156
l-6 -88 87 0 86 0 0 108 c0 160 30 263 102 355 16 20 28 37 26 37 -2 0 -37
-20 -78 -44z"/>
<path d="M5406 7290 c63 -88 85 -165 91 -317 l6 -133 83 0 84 0 0 48 c-1 72
-26 197 -50 247 -27 55 -108 129 -189 173 l-62 33 37 -51z"/>
<path d="M3762 7108 c-15 -15 -16 -152 -2 -179 13 -23 55 -25 64 -3 3 9 6 50
6 93 0 78 -9 101 -40 101 -9 0 -21 -5 -28 -12z"/>
<path d="M3894 7107 c-3 -8 -4 -51 -2 -97 2 -66 7 -85 21 -94 12 -8 22 -8 35
0 13 9 18 28 20 94 2 52 -1 87 -9 96 -15 18 -58 18 -65 1z"/>
<path d="M4032 7108 c-17 -17 -16 -159 1 -182 8 -11 23 -17 38 -14 22 3 25 8
32 82 6 64 5 83 -8 102 -17 26 -44 31 -63 12z"/>
<path d="M4182 7040 c-12 -19 -24 -48 -27 -65 -14 -69 -27 -96 -56 -110 -25
-14 -33 -14 -64 -1 -19 8 -35 21 -35 27 0 7 -9 3 -20 -8 -10 -12 -28 -24 -38
-27 -22 -7 -72 9 -72 22 0 5 -18 0 -41 -11 -33 -16 -45 -18 -65 -8 -13 6 -27
17 -30 25 -4 10 -11 8 -30 -11 -19 -19 -33 -24 -55 -21 -30 5 -31 4 -24 -31
10 -64 73 -177 117 -215 l41 -36 28 23 c189 157 300 227 381 242 l36 7 -5 96
c-3 54 -9 106 -13 117 -7 18 -9 17 -28 -15z"/>
<path d="M6295 7032 c-28 -22 -78 -69 -113 -105 -59 -60 -64 -67 -64 -110 0
-60 10 -75 116 -189 154 -165 192 -182 312 -137 l58 22 -37 14 c-20 8 -39 23
-42 34 -4 10 -15 19 -26 19 -28 0 -69 44 -69 75 0 20 -5 25 -25 25 -33 0 -75
42 -75 75 0 20 -5 25 -25 25 -34 0 -65 37 -65 77 0 25 11 45 50 88 81 89 84
151 5 87z"/>
<path d="M6395 6964 c-78 -62 -88 -75 -79 -98 12 -31 55 -17 126 40 58 47 69
60 66 82 -5 44 -36 37 -113 -24z"/>
<path d="M6482 6863 c-61 -47 -72 -61 -70 -82 5 -44 38 -37 115 23 75 59 90
80 72 102 -19 24 -41 15 -117 -43z"/>
<path d="M6593 6786 c-70 -54 -103 -84 -103 -96 0 -11 29 -40 40 -40 5 0 43
27 84 60 57 45 76 66 76 84 0 19 -16 36 -35 36 -2 0 -29 -20 -62 -44z"/>
<path d="M5788 6569 c-5 -155 -13 -204 -51 -304 -1 -4 57 -25 128 -49 72 -24
187 -69 257 -100 l127 -58 63 32 c181 92 247 198 151 244 -85 40 -213 136
-324 243 -65 63 -136 121 -156 130 -21 8 -72 18 -114 20 l-77 6 -4 -164z"/>
<path d="M4209 6706 c-110 -31 -211 -94 -361 -229 -38 -34 -99 -83 -136 -108
-55 -38 -66 -50 -64 -70 6 -51 129 -166 231 -216 47 -23 56 -25 75 -13 115 74
215 114 437 174 l57 16 -24 59 c-26 63 -44 195 -44 324 l0 77 -62 -1 c-35 0
-84 -6 -109 -13z"/>
<path d="M4496 6661 c-8 -68 8 -210 29 -271 40 -113 88 -184 195 -290 59 -58
114 -116 122 -130 29 -47 38 -130 38 -333 0 -295 15 -339 149 -438 82 -61 159
-93 376 -159 182 -55 248 -87 280 -138 l20 -31 108 -1 107 0 0 38 c0 87 -79
190 -182 237 -54 25 -80 30 -242 54 -134 19 -258 104 -290 198 -38 110 -30
330 17 471 25 78 70 130 218 252 135 112 185 176 210 270 22 85 34 222 25 285
l-7 47 -212 -4 -212 -3 -60 -30 c-34 -17 -69 -43 -80 -61 l-20 -30 -20 30
c-28 42 -77 73 -136 85 -27 6 -135 11 -238 11 l-188 0 -7 -59z m405 -117 c27
-24 49 -67 49 -94 0 -19 -6 -20 -82 -20 -46 0 -100 5 -120 10 -42 12 -75 51
-85 101 l-6 32 111 -5 c92 -4 115 -8 133 -24z m609 2 c0 -36 -42 -90 -80 -103
-19 -7 -75 -12 -124 -12 l-88 -1 6 33 c15 79 64 106 199 106 85 1 87 0 87 -23z"/>
<path d="M4405 6140 c-168 -36 -348 -113 -455 -195 -137 -105 -292 -299 -360
-447 -81 -181 -103 -303 -90 -516 13 -220 60 -390 135 -495 16 -21 16 -21 10
14 -5 26 -2 40 9 52 14 14 14 18 1 44 -20 38 -19 76 4 104 18 22 18 25 3 42
-22 25 -20 81 4 114 23 31 54 49 97 58 27 5 27 7 27 80 l0 75 134 0 133 0 7
53 c3 28 6 84 6 123 0 39 5 97 11 130 10 58 56 174 68 174 3 0 4 -113 2 -250
l-3 -251 33 20 c20 13 51 21 77 21 l42 0 0 -224 0 -223 108 109 c162 165 306
276 454 349 l67 33 -36 39 c-71 79 -97 180 -109 430 l-7 149 -68 -68 -67 -67
-89 53 c-48 29 -89 54 -90 55 -2 1 35 73 82 161 l84 159 -32 25 c-18 14 -45
39 -61 57 -16 18 -32 33 -35 32 -3 0 -46 -9 -96 -19z m38 -752 c31 -16 46 -39
47 -70 0 -56 -69 -94 -116 -64 -50 33 -51 96 -2 130 27 19 42 20 71 4z"/>
<path d="M5562 6064 c-53 -49 -82 -83 -82 -97 0 -23 129 -297 140 -297 14 0
79 157 100 239 11 46 24 111 27 146 l6 63 -39 11 c-22 6 -46 11 -55 11 -9 0
-52 -34 -97 -76z"/>
<path d="M5847 6093 c-4 -3 -7 -18 -7 -33 0 -83 -77 -299 -143 -403 l-38 -58
27 -50 c45 -81 47 -81 100 18 100 183 154 342 154 453 l0 57 -39 11 c-45 14
-46 14 -54 5z"/>
<path d="M6025 6013 c-39 -247 -179 -546 -328 -700 -45 -46 -48 -53 -31 -59
149 -49 249 -127 298 -234 l23 -50 7 92 c3 50 7 150 7 222 1 72 4 160 8 196
l7 65 21 -45 c36 -77 46 -162 47 -402 l1 -228 184 0 183 0 -7 -67 c-3 -38 -15
-82 -24 -98 -17 -29 -17 -32 1 -56 26 -34 26 -109 1 -151 -41 -71 -122 -96
-191 -60 -34 18 -41 18 -54 6 -25 -25 -81 -28 -129 -7 -43 19 -45 19 -74 1
-40 -24 -86 -23 -119 3 -22 17 -32 20 -49 11 -12 -6 -32 -14 -45 -17 l-22 -6
22 -41 c66 -117 234 -197 373 -176 144 21 346 179 419 328 70 146 80 204 80
475 0 228 -1 245 -26 337 -61 226 -177 411 -343 551 -63 53 -208 147 -227 147
-4 0 -10 -17 -13 -37z"/>
<path d="M4627 5857 l-64 -112 34 -24 35 -23 69 73 c74 80 80 98 43 154 -39
59 -47 54 -117 -68z"/>
<path d="M5349 5891 c-16 -16 -29 -37 -29 -46 0 -55 132 -235 218 -298 47 -35
108 -64 117 -56 2 3 -24 47 -58 100 -34 53 -89 148 -122 212 -66 129 -77 136
-126 88z"/>
<path d="M5275 5723 c-3 -10 -9 -63 -12 -118 -7 -117 11 -196 51 -234 l25 -24
65 47 c35 25 74 57 85 71 l20 26 -79 75 c-44 42 -93 98 -111 125 -17 27 -32
49 -34 49 -2 0 -6 -8 -10 -17z"/>
<path d="M5527 5415 c-26 -30 -61 -62 -77 -72 -17 -9 -30 -21 -30 -25 0 -4 25
-15 55 -24 66 -19 69 -17 167 75 l62 58 -54 12 c-29 6 -59 16 -65 21 -7 6 -27
-10 -58 -45z"/>
<path d="M4917 5050 c-376 -160 -669 -477 -733 -789 l-17 -85 23 -18 c28 -22
69 -34 79 -22 4 5 18 38 31 74 52 149 153 330 246 442 80 95 246 215 447 323
59 32 107 61 107 65 0 9 -80 40 -100 40 -8 0 -46 -14 -83 -30z"/>
<path d="M5064 4919 c-239 -127 -351 -205 -470 -323 -128 -129 -158 -185 -186
-356 -11 -66 -18 -124 -14 -127 3 -4 34 -7 69 -7 66 -1 70 0 186 81 84 57 147
70 225 45 96 -31 148 -88 191 -212 l12 -35 18 55 c31 94 163 202 249 204 73 1
132 -23 196 -79 32 -29 75 -58 96 -65 52 -17 159 -8 217 20 l47 22 -68 48
c-84 59 -170 152 -210 228 -60 114 -65 176 -17 246 24 35 24 40 15 107 -6 39
-15 79 -20 89 -14 26 -82 56 -235 105 l-134 42 -167 -88z m70 -350 c53 -42 19
-129 -51 -129 -66 0 -98 77 -51 127 27 29 67 30 102 2z"/>
<path d="M4167 4920 c-31 -29 -39 -45 -48 -95 -6 -33 -17 -71 -26 -83 -13 -21
-13 -26 1 -41 18 -20 21 -92 5 -108 -9 -9 -8 -21 4 -50 13 -33 13 -43 2 -70
-7 -17 -18 -34 -25 -38 -8 -5 -6 -13 8 -29 11 -11 22 -34 24 -51 l3 -30 28 43
c71 109 86 211 70 462 l-8 125 -38 -35z"/>
<path d="M3748 4829 c-25 -14 -22 -55 4 -73 17 -12 49 -16 136 -16 129 0 152
8 152 50 0 19 -7 33 -19 40 -25 13 -250 13 -273 -1z"/>
<path d="M5720 4747 c0 -26 17 -47 40 -47 8 0 26 -9 39 -19 24 -19 25 -18 53
2 35 26 96 27 132 4 22 -15 28 -15 60 -2 44 19 103 19 136 1 21 -12 27 -12 49
5 13 10 39 19 57 19 34 0 62 29 49 50 -4 6 -123 10 -311 10 l-304 0 0 -23z"/>
<path d="M3748 4679 c-25 -14 -22 -55 4 -73 26 -19 236 -23 269 -6 22 12 26
59 7 78 -15 15 -255 16 -280 1z"/>
<path d="M5700 4633 c-51 -19 -68 -85 -30 -123 42 -42 120 -10 120 49 0 48
-50 88 -90 74z"/>
<path d="M5900 4633 c-51 -19 -68 -85 -30 -123 61 -61 159 32 103 98 -20 23
-50 33 -73 25z"/>
<path d="M6083 4630 c-46 -19 -57 -83 -20 -118 29 -27 71 -28 97 -2 55 55 -4
149 -77 120z"/>
<path d="M6279 4627 c-37 -19 -53 -60 -37 -94 26 -55 104 -54 130 2 26 57 -37
119 -93 92z"/>
<path d="M3742 4528 c-17 -17 -15 -43 4 -62 12 -13 40 -16 143 -16 141 0 155
5 149 57 l-3 28 -140 3 c-101 2 -144 -1 -153 -10z"/>
<path d="M3732 4378 c-17 -17 -15 -42 6 -61 15 -14 41 -17 145 -17 123 0 127
1 142 24 13 19 14 29 5 45 -10 20 -19 21 -148 21 -94 0 -142 -4 -150 -12z"/>
<path d="M6416 4234 c-67 -58 -208 -114 -289 -114 -16 0 -41 -8 -55 -19 -54
-37 -156 -83 -230 -102 -126 -32 -223 -24 -297 26 l-36 25 -18 -22 c-16 -19
-16 -25 -5 -47 18 -34 18 -75 -1 -111 -14 -27 -14 -33 0 -60 20 -39 19 -88 -3
-124 -17 -29 -17 -31 2 -69 19 -39 19 -39 -2 -89 -20 -48 -20 -51 -4 -74 9
-13 22 -22 27 -19 6 2 39 16 75 31 57 25 77 28 165 27 104 0 107 -1 425 -99
113 -35 256 -43 331 -20 178 56 291 230 291 446 0 213 -110 385 -277 435 -26
8 -51 15 -54 15 -3 -1 -24 -16 -45 -36z"/>
<path d="M3571 4213 c-56 -20 -131 -93 -165 -162 -103 -202 -69 -487 71 -610
68 -61 173 -82 302 -62 40 6 155 38 255 71 99 32 212 64 250 71 121 21 239 -5
328 -70 l42 -31 13 25 c8 14 18 25 24 25 6 0 -1 14 -16 32 -23 27 -26 39 -22
75 2 24 12 52 22 63 15 16 15 21 2 42 -28 43 -30 85 -8 128 17 33 18 40 6 50
-25 21 -30 79 -10 116 16 31 16 33 -1 56 l-18 24 -58 -23 c-136 -55 -285 -39
-495 54 -10 4 -13 -17 -13 -86 0 -107 -5 -110 -86 -60 -89 56 -151 129 -185
218 -14 39 -23 48 -55 58 -54 16 -131 14 -183 -4z"/>
<path d="M4746 4154 c-64 -64 24 -163 94 -106 29 23 31 73 5 102 -22 24 -77
27 -99 4z"/>
<path d="M5312 4147 c-45 -48 -14 -117 51 -117 43 0 67 26 67 73 0 63 -74 91
-118 44z"/>
<path d="M4920 4067 c0 -12 -6 -32 -14 -43 -12 -17 -12 -22 0 -39 18 -25 18
-83 -1 -118 -13 -25 -13 -32 0 -57 19 -38 19 -100 0 -128 -14 -19 -14 -25 1
-53 18 -37 14 -100 -9 -127 -12 -15 -11 -22 8 -55 l22 -38 22 46 c36 77 51
161 51 295 0 136 -17 234 -49 299 -24 47 -31 51 -31 18z"/>
<path d="M5198 4063 c-39 -66 -53 -143 -53 -293 0 -156 11 -219 52 -309 l25
-53 17 38 c17 37 17 40 -1 69 -22 36 -23 76 -3 115 13 25 13 32 0 57 -19 36
-19 77 1 118 14 30 14 36 0 64 -20 37 -20 90 -1 115 11 14 12 23 4 33 -7 7
-14 27 -18 44 l-6 30 -17 -28z"/>
<path d="M4741 3974 c-12 -15 -21 -34 -21 -44 0 -10 9 -29 21 -44 40 -51 122
-22 122 44 0 66 -82 95 -122 44z"/>
<path d="M5332 3990 c-49 -20 -54 -95 -7 -126 47 -31 105 3 105 60 0 51 -50
84 -98 66z"/>
<path d="M4745 3795 c-40 -39 -29 -97 22 -116 84 -32 137 93 56 130 -36 16
-51 14 -78 -14z"/>
<path d="M5312 3797 c-45 -48 -14 -117 51 -117 42 0 67 26 67 68 0 65 -74 96
-118 49z"/>
<path d="M4745 3615 c-46 -45 -20 -115 42 -117 59 -2 94 51 68 101 -24 48 -72
55 -110 16z"/>
<path d="M5310 3620 c-61 -61 27 -154 98 -104 28 20 31 83 4 107 -25 23 -78
21 -102 -3z"/>
<path d="M6680 3083 c-83 -42 -131 -45 -535 -37 -209 5 -456 7 -548 6 -270 -2
-416 -38 -486 -118 l-31 -35 -31 35 c-41 47 -119 82 -225 102 -74 13 -150 15
-454 12 -201 -1 -464 -3 -585 -3 -216 0 -221 1 -285 27 -35 15 -65 26 -67 25
-1 -2 5 -29 14 -60 21 -74 75 -137 143 -166 77 -33 182 -41 555 -41 611 0 777
-26 892 -140 l41 -42 44 43 c115 112 285 139 893 139 187 0 377 4 423 10 165
19 251 86 281 221 6 24 9 44 8 44 -1 0 -22 -10 -47 -22z"/>
<path d="M2020 8463 c-12 -15 -107 -116 -211 -225 l-190 -197 47 -43 c55 -51
71 -61 84 -53 17 10 11 30 -15 55 -14 13 -25 29 -25 35 0 7 26 41 59 76 l58
64 197 -189 c110 -106 199 -199 202 -213 4 -15 0 -30 -10 -42 -19 -21 -20 -37
-4 -47 11 -7 218 200 218 219 0 19 -33 18 -55 -3 -22 -21 -25 -21 -46 -6 -13
9 -108 97 -211 197 l-189 181 44 52 c24 28 56 58 70 66 25 14 28 13 56 -14 26
-24 33 -27 46 -16 13 11 9 20 -37 69 -29 31 -56 57 -59 59 -4 2 -17 -10 -29
-25z"/>
<path d="M8475 8160 c-3 -5 1 -20 9 -32 33 -47 36 -44 -259 -274 -165 -129
-163 -128 -207 -125 -37 2 -39 1 -26 -16 80 -111 173 -225 206 -255 37 -34
119 -68 161 -68 40 0 96 24 131 56 64 58 74 125 29 202 -24 41 -24 50 -1 29
98 -89 262 -38 262 82 0 51 -30 104 -119 213 -43 54 -95 120 -116 148 -36 48
-57 61 -70 40z m165 -247 c40 -62 39 -94 -5 -137 -36 -36 -87 -53 -124 -41
-22 7 -91 72 -91 86 0 11 163 138 178 139 7 0 26 -21 42 -47z m-230 -170 c22
-34 30 -59 30 -91 0 -39 -5 -50 -43 -87 -53 -54 -110 -72 -159 -52 -45 19
-103 86 -88 101 23 23 215 175 223 175 4 1 21 -20 37 -46z"/>
<path d="M1285 7533 c-38 -69 -107 -189 -152 -266 -46 -77 -83 -142 -83 -146
1 -3 32 -22 71 -41 58 -29 71 -33 79 -20 6 10 -1 23 -28 46 l-37 32 28 59 c56
116 31 119 279 -26 119 -69 229 -136 245 -147 26 -20 27 -23 16 -55 -11 -27
-10 -36 1 -47 16 -16 9 -26 104 140 34 59 62 112 62 117 0 22 -27 17 -51 -11
l-25 -30 -65 32 c-35 18 -148 82 -251 142 l-188 110 27 46 c62 109 70 115 125
86 25 -13 32 -14 39 -2 5 7 9 16 9 19 0 5 -110 78 -130 86 -3 1 -36 -55 -75
-124z"/>
<path d="M8800 7249 c-339 -45 -376 -47 -405 -19 -13 12 -29 18 -38 15 -13 -6
-7 -23 36 -106 29 -54 54 -99 57 -99 3 0 11 4 19 9 12 8 12 14 1 41 -12 29
-12 34 4 45 9 7 38 16 64 20 26 3 54 8 63 11 12 3 32 -24 78 -107 l62 -112
-49 -56 c-57 -65 -77 -73 -93 -37 -12 26 -33 34 -44 16 -8 -13 135 -272 149
-267 6 2 11 22 11 43 0 36 18 62 208 306 114 147 207 272 207 277 0 20 -23 61
-34 60 -6 -1 -139 -19 -296 -40z m140 -45 c0 -3 -36 -50 -81 -105 -92 -114
-78 -114 -143 4 -21 38 -36 70 -34 71 3 3 208 33 241 35 9 0 17 -2 17 -5z"/>
<path d="M973 6953 c-4 -10 -22 -56 -40 -103 -25 -63 -30 -86 -20 -92 20 -12
24 -10 46 27 25 43 16 45 248 -45 196 -76 238 -103 253 -160 20 -76 -30 -204
-92 -236 -48 -25 -104 -13 -298 60 -204 78 -224 88 -214 119 12 37 10 51 -9
55 -10 2 -20 -4 -23 -15 -4 -10 -28 -73 -54 -141 -46 -117 -47 -123 -29 -133
17 -9 21 -6 30 20 6 16 17 32 25 35 9 3 113 -31 232 -75 240 -90 291 -99 352
-63 86 50 155 190 155 314 0 135 -42 174 -298 274 -231 90 -229 89 -225 134 2
29 -1 37 -15 40 -10 2 -20 -4 -24 -15z"/>
<path d="M9326 6670 c6 -40 6 -40 -37 -59 -62 -27 -474 -151 -503 -151 -18 0
-27 8 -35 30 -7 21 -17 30 -32 30 -16 0 -20 -5 -16 -17 39 -141 63 -203 77
-201 10 3 15 16 15 43 0 32 5 42 25 52 36 17 412 134 417 129 2 -2 -57 -96
-131 -209 -240 -366 -238 -362 -230 -413 3 -24 8 -44 10 -44 3 0 20 6 39 14
40 17 506 161 553 171 30 6 33 4 48 -30 10 -26 20 -35 30 -31 9 3 17 6 19 6 2
0 -39 144 -60 207 -2 7 -11 10 -20 7 -11 -5 -15 -18 -13 -45 1 -21 -1 -41 -5
-45 -8 -8 -409 -135 -413 -131 -4 4 179 289 271 422 44 64 79 119 78 123 0 4
-13 46 -28 95 -22 69 -31 87 -46 87 -17 0 -18 -5 -13 -40z"/>
<path d="M700 6070 c0 -31 -58 -413 -80 -529 -5 -30 -9 -55 -8 -56 2 -1 37 -7
78 -12 54 -7 77 -7 82 1 13 19 3 30 -33 39 -19 5 -38 12 -43 17 -10 10 1 149
13 169 6 9 64 3 266 -29 141 -23 268 -45 281 -50 20 -8 24 -17 24 -50 0 -32 4
-40 18 -40 15 0 21 20 40 143 27 172 26 167 3 167 -12 0 -21 -11 -28 -32 -9
-33 -10 -33 -69 -31 -53 1 -503 69 -511 76 -6 7 25 159 36 170 6 6 28 10 48 9
32 -3 52 9 53 29 0 4 -28 12 -62 18 -35 6 -73 14 -85 17 -20 6 -23 3 -23 -26z"/>
<path d="M9574 5693 l-9 -38 -120 -6 c-66 -4 -195 -7 -288 -8 -167 -1 -167 -1
-189 24 -12 14 -25 25 -30 25 -12 0 -10 -303 3 -380 21 -135 99 -248 205 -297
169 -78 364 -38 438 90 40 69 47 138 40 395 -6 207 -9 232 -24 232 -11 0 -20
-13 -26 -37z m-41 -189 l37 -7 0 -91 c0 -110 -12 -156 -50 -200 -111 -125
-407 -103 -494 38 -27 43 -31 59 -34 147 -3 55 -3 100 -1 101 2 1 99 5 214 8
116 3 228 7 250 8 22 1 57 -1 78 -4z"/>
<path d="M620 5155 c0 -148 1 -155 20 -155 15 0 20 7 20 28 0 57 0 57 246 60
125 2 255 1 290 -3 l62 -6 7 -40 c5 -29 11 -39 26 -39 18 0 19 9 19 155 0 143
-1 155 -18 155 -13 0 -21 -11 -28 -37 l-9 -38 -285 -3 c-259 -2 -286 -1 -297
15 -7 9 -13 27 -13 40 0 16 -6 23 -20 23 -19 0 -20 -7 -20 -155z"/>
<path d="M671 4843 l-53 -4 6 -37 c18 -103 76 -528 76 -553 0 -33 2 -33 86
-19 79 14 85 17 78 35 -4 10 -20 15 -49 15 -24 0 -47 5 -50 10 -4 6 -13 47
-20 91 -9 59 -9 82 -1 85 27 9 539 75 552 70 7 -3 17 -20 22 -38 7 -25 13 -32
28 -30 10 2 20 5 20 5 1 1 -4 36 -12 77 -7 41 -16 108 -20 148 -6 66 -9 72
-30 72 -20 0 -22 -4 -17 -34 4 -27 1 -36 -14 -44 -18 -10 -492 -82 -538 -82
-20 0 -23 8 -33 77 -11 80 -4 113 23 113 7 0 25 4 39 10 34 12 24 41 -13 38
-14 -1 -50 -3 -80 -5z"/>
<path d="M9576 4760 c-3 -17 -13 -33 -21 -37 -9 -3 -96 7 -192 21 -317 49
-353 47 -417 -24 -74 -83 -104 -276 -57 -373 45 -92 93 -113 358 -157 103 -17
195 -35 204 -41 10 -5 19 -23 21 -42 2 -24 8 -32 22 -32 17 0 22 12 32 85 21
141 21 135 0 135 -14 0 -22 -10 -28 -33 -5 -18 -15 -35 -22 -38 -14 -5 -306
37 -393 56 -66 15 -92 31 -116 69 -49 79 -13 235 63 274 27 14 48 16 95 12
102 -11 379 -57 398 -66 11 -7 17 -22 17 -45 0 -22 6 -37 15 -41 9 -3 17 -4
19 -2 4 4 32 180 43 267 5 37 3 42 -14 42 -15 0 -22 -9 -27 -30z"/>
<path d="M1223 4189 c-83 -16 -133 -58 -147 -125 -4 -18 -2 -78 4 -136 8 -71
8 -112 1 -130 -23 -61 -119 -82 -167 -37 -40 37 -57 79 -58 140 -1 64 10 83
60 101 22 8 34 19 34 31 0 19 -20 19 -120 -2 -42 -8 -50 -34 -38 -122 17 -132
80 -233 164 -265 86 -33 207 5 246 76 18 32 19 48 13 167 l-7 133 30 30 c25
25 39 30 77 30 25 0 59 -7 75 -15 42 -22 73 -88 73 -155 0 -76 -22 -116 -73
-131 -28 -9 -40 -18 -40 -31 0 -21 10 -22 82 -7 29 6 64 13 77 15 23 5 24 6
19 107 -4 84 -10 113 -33 164 -54 121 -160 184 -272 162z"/>
<path d="M8766 4007 c-20 -57 -36 -106 -36 -110 0 -20 37 -3 53 24 21 38 10
40 242 -43 257 -92 241 -80 154 -111 -126 -45 -543 -195 -562 -203 -10 -3 -27
-24 -37 -45 -24 -46 -24 -49 -5 -49 19 0 510 -177 558 -201 35 -19 37 -21 31
-58 -5 -30 -3 -39 10 -44 9 -4 19 -1 21 6 10 27 64 173 70 188 4 11 0 18 -15
22 -16 4 -23 -2 -35 -30 -13 -31 -18 -34 -42 -29 -66 16 -393 140 -386 146 11
10 319 124 472 174 l123 41 34 95 c19 52 34 96 34 96 0 1 -8 4 -19 7 -14 3
-23 -4 -35 -29 -8 -19 -19 -34 -23 -34 -27 0 -444 150 -507 182 -37 19 -38 21
-32 58 5 34 -3 50 -28 50 -2 0 -20 -46 -40 -103z"/>
<path d="M1578 3580 c-89 -56 -463 -261 -487 -267 -19 -5 -29 0 -46 20 -21 28
-39 34 -50 17 -4 -7 59 -131 100 -198 1 -1 10 0 19 4 11 4 15 12 10 23 -18 41
-15 66 8 81 64 40 352 199 355 196 5 -5 -106 -297 -173 -458 -30 -70 -54 -132
-54 -136 0 -5 22 -47 48 -94 40 -71 51 -84 64 -77 15 8 15 13 2 44 -14 34 -13
34 19 58 17 14 104 65 192 114 280 158 291 161 319 118 18 -27 34 -32 42 -12
6 16 -92 192 -106 191 -5 -1 -15 -2 -20 -2 -6 -1 -5 -16 4 -37 14 -32 14 -36
-4 -53 -24 -23 -382 -224 -387 -218 -3 2 50 145 117 317 120 309 121 313 109
356 -6 24 -17 43 -23 43 -6 0 -32 -14 -58 -30z"/>
<path d="M8484 3186 c-146 -36 -256 -160 -330 -370 -24 -67 -25 -79 -12 -87 8
-4 43 -29 77 -54 52 -39 62 -50 59 -70 -10 -49 21 -34 69 33 25 37 62 88 81
115 29 40 32 50 21 63 -12 14 -17 11 -49 -27 l-37 -42 -55 37 c-76 50 -79 54
-63 99 33 97 102 159 193 177 179 34 392 -126 392 -295 0 -94 -73 -208 -165
-256 l-45 -24 -41 22 c-41 23 -59 22 -59 0 0 -7 26 -36 59 -64 l58 -52 60 49
c73 59 145 152 186 240 25 53 32 81 35 153 4 82 3 91 -27 152 -74 149 -256
240 -407 201z"/>
<path d="M1985 2930 c-3 -5 2 -23 11 -40 17 -28 17 -30 -2 -51 -33 -38 -427
-329 -444 -329 -9 0 -25 9 -35 20 -19 21 -40 26 -50 10 -7 -12 166 -248 183
-249 21 -1 25 26 6 54 -16 25 -16 27 7 51 27 29 391 305 426 323 20 10 26 8
45 -14 24 -28 27 -29 47 -16 11 7 -5 35 -75 129 -85 115 -105 134 -119 112z"/>
<path d="M2434 2130 c-42 -13 -100 -79 -115 -130 -22 -73 10 -153 80 -201 51
-35 143 -34 198 3 109 72 108 232 -2 307 -37 25 -115 35 -161 21z"/>
<path d="M7688 2130 c-46 -14 -85 -48 -107 -93 -68 -140 50 -291 204 -263 69
13 145 107 145 181 0 17 -9 48 -19 70 -42 90 -132 133 -223 105z"/>
<path d="M6090 1510 c-56 -26 -95 -63 -123 -115 -32 -59 -29 -197 7 -320 88
-298 210 -396 391 -316 99 44 141 131 132 270 -11 169 -102 402 -180 465 -34
27 -48 31 -110 34 -56 2 -82 -2 -117 -18z m104 -71 c68 -53 196 -404 196 -537
0 -35 -6 -49 -29 -73 -79 -79 -161 11 -248 269 -70 211 -74 326 -9 352 35 14
62 11 90 -11z"/>
<path d="M4209 1506 c-2 -2 -80 -6 -174 -9 l-170 -6 -6 -36 c-3 -20 -3 -37 0
-39 3 -2 44 2 91 9 47 7 88 10 92 6 15 -13 -152 -550 -177 -571 -11 -9 -27 -9
-65 -1 -69 15 -77 14 -83 -9 -4 -16 2 -22 31 -30 96 -25 278 -81 327 -99 l55
-21 10 21 c10 18 6 22 -45 44 -31 14 -58 31 -61 38 -6 16 65 262 146 507 33
100 57 186 54 191 -5 9 -18 12 -25 5z"/>
<path d="M4691 1410 c-45 -11 -110 -58 -138 -99 -50 -75 -68 -206 -38 -279 32
-75 86 -112 163 -112 41 0 60 7 102 35 29 20 54 34 55 33 2 -2 -7 -38 -20 -81
-26 -92 -64 -149 -124 -192 -37 -26 -52 -30 -114 -32 -39 -1 -73 -6 -75 -11
-1 -4 7 -17 18 -27 16 -15 32 -17 92 -13 189 13 344 172 378 388 33 214 -34
358 -181 389 -56 12 -70 12 -118 1z m93 -60 c79 -30 100 -241 31 -309 -50 -51
-135 -22 -162 54 -30 82 3 225 57 252 30 15 41 16 74 3z"/>
<path d="M5430 1403 c-58 -10 -118 -35 -148 -63 -32 -29 -32 -30 -32 -125 0
-94 1 -96 22 -93 18 2 24 12 30 48 14 81 97 128 175 99 47 -18 73 -67 73 -136
0 -98 -42 -174 -204 -373 -71 -87 -84 -109 -79 -130 3 -14 6 -26 7 -27 1 -1
55 5 121 13 66 8 178 17 248 20 70 4 130 11 133 16 4 5 3 37 0 71 l-7 62 -170
-19 c-94 -10 -173 -16 -176 -13 -3 3 28 43 69 89 146 165 196 246 205 334 11
107 -55 201 -156 223 -53 11 -66 12 -111 4z"/>
</g>
</svg>
