<?xml version="1.0" standalone="no"?>
<!DOCTYPE svg PUBLIC "-//W3C//DTD SVG 20010904//EN"
 "http://www.w3.org/TR/2001/REC-SVG-20010904/DTD/svg10.dtd">
<svg version="1.0" xmlns="http://www.w3.org/2000/svg"
 width="1098.000000pt" height="878.000000pt" viewBox="0 0 1098.000000 878.000000"
 preserveAspectRatio="xMidYMid meet">
<metadata>
Created by potrace 1.15, written by Peter Selinger 2001-2017
</metadata>
<g transform="translate(0.000000,878.000000) scale(0.100000,-0.100000)"
fill="#000000" stroke="none">
<path d="M5210 8599 c-775 -51 -1540 -326 -2180 -785 -711 -509 -1243 -1224
-1533 -2059 -236 -679 -293 -1419 -166 -2135 185 -1036 769 -1986 1614 -2625
610 -461 1313 -742 2080 -832 212 -25 738 -25 950 0 768 90 1470 372 2080 832
553 418 1003 977 1289 1599 291 635 415 1272 385 1986 -44 1032 -478 2022
-1218 2773 -123 125 -314 292 -476 414 -345 261 -767 481 -1195 623 -532 177
-1070 246 -1630 209z m620 -820 c389 -33 800 -149 1165 -329 386 -190 636
-369 935 -670 497 -500 818 -1117 939 -1803 42 -239 46 -297 46 -612 -1 -270
-4 -329 -23 -460 -63 -415 -159 -721 -334 -1070 -409 -812 -1127 -1431 -1990
-1714 -220 -72 -379 -108 -653 -148 -175 -25 -649 -25 -830 0 -415 59 -744
157 -1090 327 -939 460 -1621 1327 -1840 2343 -58 270 -69 389 -69 727 0 378
18 539 100 863 163 648 539 1257 1052 1708 246 216 462 359 767 509 565 277
1164 386 1825 329z"/>
<path d="M5168 6546 c-59 -21 -85 -42 -115 -93 l-28 -48 -3 -777 -3 -778 -777
-2 -777 -3 -45 -25 c-28 -16 -55 -43 -75 -74 l-30 -49 0 -321 c0 -310 1 -322
22 -361 24 -46 55 -76 100 -99 29 -14 113 -16 807 -16 l775 0 3 -777 c3 -775
3 -778 25 -818 24 -46 55 -76 100 -99 48 -24 658 -24 706 0 45 23 76 53 100
99 22 40 22 43 25 818 l3 777 775 0 c694 0 778 2 807 16 45 23 76 53 100 99
21 39 22 51 22 361 l0 321 -30 49 c-20 31 -47 58 -75 74 l-45 25 -777 3 -777
2 -3 779 -3 778 -30 49 c-20 31 -47 58 -75 74 l-45 25 -310 2 c-241 2 -318 0
-347 -11z"/>
</g>
</svg>
